<?xml version="1.0" encoding="utf-8"?>
<!-- Generator: Adobe Illustrator 26.0.3, SVG Export Plug-In . SVG Version: 6.00 Build 0)  -->
<svg version="1.1" id="Layer_1" xmlns="http://www.w3.org/2000/svg" xmlns:xlink="http://www.w3.org/1999/xlink" x="0px" y="0px"
	 viewBox="0 0 17.7 17.7" style="enable-background:new 0 0 17.7 17.7;" xml:space="preserve">
<style type="text/css">
	.st0{fill:#E1D7C8;}
</style>
<path class="st0" d="M8.9,8.9"/>
<path class="st0" d="M14.6,8.2C14.5,8.1,14.3,8,14,8H6.1H5.8l2.7-2.7c0.3-0.3,0.3-0.9,0-1.2C8.3,3.8,8.1,3.8,7.9,3.8
	C7.7,3.8,7.5,3.9,7.3,4L3.7,7.6L3.1,8.3c-0.3,0.3-0.3,0.8,0,1.1L3.7,10l1.4,1.4l2.2,2.2c0.3,0.3,0.9,0.3,1.2,0s0.3-0.9,0-1.2
	L5.7,9.6H14c0.4,0,0.8-0.4,0.8-0.8C14.9,8.5,14.7,8.4,14.6,8.2z"/>
</svg>
