<?xml version="1.0" encoding="utf-8"?>
<!-- Generator: Adobe Illustrator 26.0.3, SVG Export Plug-In . SVG Version: 6.00 Build 0)  -->
<svg version="1.1" id="Layer_1" xmlns="http://www.w3.org/2000/svg" xmlns:xlink="http://www.w3.org/1999/xlink" x="0px" y="0px"
	 viewBox="0 0 17.7 17.7" style="enable-background:new 0 0 17.7 17.7;" xml:space="preserve">
<style type="text/css">
	.st0{fill:#E1D7C8;}
</style>
<path class="st0" d="M10.1,8.9l3.6-3.6C14,5,14,4.4,13.6,4.1c-0.3-0.3-0.9-0.3-1.2,0L8.9,7.7L5.3,4.1C5,3.8,4.4,3.8,4.1,4.1
	C3.8,4.4,3.8,5,4.1,5.3l3.6,3.6l-3.6,3.6c-0.3,0.3-0.3,0.9,0,1.2c0.2,0.2,0.4,0.2,0.6,0.2s0.4-0.1,0.6-0.2l3.6-3.6l3.6,3.6
	c0.2,0.2,0.4,0.2,0.6,0.2s0.4-0.1,0.6-0.2c0.3-0.3,0.3-0.9,0-1.2L10.1,8.9z"/>
</svg>
