<?xml version="1.0" encoding="utf-8"?>
<!-- Generator: Adobe Illustrator 26.0.3, SVG Export Plug-In . SVG Version: 6.00 Build 0)  -->
<svg version="1.1" id="Layer_1" xmlns="http://www.w3.org/2000/svg" xmlns:xlink="http://www.w3.org/1999/xlink" x="0px" y="0px"
	 viewBox="0 0 12.9 12.8" style="enable-background:new 0 0 12.9 12.8;" xml:space="preserve">
<style type="text/css">
	.st0{fill:#695948;}
</style>
<path class="st0" d="M8.9,2.7l1.2,1.2L10.1,4L4,10.1c-0.3,0.3-0.9,0.3-1.2,0c-0.3-0.3-0.3-0.9,0-1.2l1-1L8.9,2.7L8.9,2.7z"/>
<path class="st0" d="M11.8,4.5L8.3,1.1c0.3-0.2,0.5-0.5,0.8-0.7c0.6-0.5,1.5-0.4,2.1,0.1c0.4,0.4,0.8,0.8,1.2,1.2
	c0.6,0.6,0.6,1.6,0,2.3L11.8,4.5z"/>
<path class="st0" d="M10.7,4.4L11.3,5l-0.1,0.1l-6.2,6.1c-0.1,0.1-0.3,0.2-0.5,0.1c-0.2,0-0.3-0.2-0.3-0.4c0-0.1,0-0.3,0.2-0.4
	L6,9.1l4.6-4.6L10.7,4.4z"/>
<path class="st0" d="M7.8,1.6l0.6,0.6L8.4,2.3L2.3,8.4C2.2,8.6,1.9,8.7,1.7,8.6C1.4,8.5,1.4,8.2,1.5,8c0-0.1,0.1-0.2,0.2-0.2l1-1
	L7.8,1.6L7.8,1.6z"/>
<path class="st0" d="M1,8.8c0.2,0.3,0.5,0.4,0.8,0.5c-0.1,0.8,0.4,1.6,1.3,1.8c0.2,0,0.4,0,0.5,0c0,0.3,0.2,0.6,0.4,0.8l-4,1L1,8.8z
	"/>
</svg>
