<?xml version="1.0" encoding="utf-8"?>
<!-- Generator: Adobe Illustrator 26.0.3, SVG Export Plug-In . SVG Version: 6.00 Build 0)  -->
<svg version="1.1" id="Layer_1" xmlns="http://www.w3.org/2000/svg" xmlns:xlink="http://www.w3.org/1999/xlink" x="0px" y="0px"
	 viewBox="0 0 260.9 313" style="enable-background:new 0 0 260.9 313;" xml:space="preserve">
<style type="text/css">
	.st0{fill:#B69B78;}
	.st1{fill:#BB9F83;}
	.st2{fill:#E1D7C8;}
	.st3{fill:#695948;}
	.st4{fill:none;stroke:#695948;stroke-width:0.5;stroke-linecap:round;stroke-linejoin:round;stroke-miterlimit:10;}
</style>
<path class="st0" d="M0,312.9c0-72,58.4-130.4,130.4-130.4s130.4,58.4,130.4,130.4"/>
<path class="st1" d="M133.3,195l22.4-5.6c51.6,17.4,88.7,66.1,88.7,123.6h-48.1C193.5,251.4,133.3,195,133.3,195z"/>
<path class="st2" d="M169.1,67.9c-1-4-2.4-7.7-4.2-11.3c-4-7.9-9.9-14.7-17.1-19.6c-8.5-5.8-18.8-9.3-29.9-9.3
	c-0.7,0-1.3,0.1-1.9,0.1c-5.5,0.2-10.8,1.2-15.8,3c-1.6,0.6-3.2,1.2-4.8,2c-5.9,2.8-11.2,6.6-15.7,11.3c-9,9.5-14.5,22.2-14.5,36.3
	v25.5v26.3v25.5c0,21.1,12.5,39.3,30.4,47.7v40.6h74.2v-79.8c0.5-2.8,0.8-5.6,0.8-8.5v-0.4v-25.1v-0.4v-25.9V80.4
	C170.6,76.1,170,71.9,169.1,67.9z"/>
<g>
	<path class="st0" d="M95.4,32.8c-0.4-1.8-0.5-3.6-0.5-5.4c0-2.9,0.5-5.7,1.3-8.3c-2.7-4.1-7.9-6.2-12.9-4.8
		c-6.2,1.8-9.8,8.3-8,14.4l4.4,15.4C84.2,39.4,89.5,35.6,95.4,32.8z"/>
	<path class="st0" d="M100.2,30.8c5-1.8,10.3-2.8,15.8-3c1.1-10.7,6.5-20.1,14.5-26.5c-2.6-0.8-5.4-1.3-8.3-1.3
		c-12.2,0-22.5,8-26,19c0.7,1,1.2,2,1.6,3.2L100.2,30.8z"/>
	<path class="st0" d="M95.4,32.8c1.6-0.7,3.1-1.4,4.8-2l-2.5-8.5c-0.3-1.2-0.9-2.2-1.6-3.2c-0.8,2.6-1.3,5.4-1.3,8.3
		C94.8,29.2,95,31,95.4,32.8z"/>
	<path class="st0" d="M164.9,56.6c-4-7.9-9.9-14.7-17.1-19.6c-3.8,10-13.2,17.2-24.5,17.7c6.5,8.9,16.7,15,28.4,15.9
		C155,64.9,159.5,60.2,164.9,56.6z"/>
	<path class="st0" d="M116,27.8c0.6,0,1.3-0.1,1.9-0.1c11.1,0,21.4,3.4,29.9,9.3c1.1-3,1.8-6.2,1.8-9.6c0-12.2-8-22.6-19.1-26.1
		C122.5,7.6,117,17.1,116,27.8z"/>
	<path class="st0" d="M147.8,37c-8.5-5.8-18.8-9.3-29.9-9.3c-0.7,0-1.3,0.1-1.9,0.1c-0.1,1.3-0.2,2.6-0.2,3.9
		c0,8.6,2.8,16.5,7.5,22.9C134.5,54.2,144,47,147.8,37z"/>
	<path class="st0" d="M169.1,67.9c-4.4,1.8-9.3,2.8-14.3,2.8c-1,0-2-0.1-3-0.2c-3.9,6.5-6.1,14-6.1,22.1c0,17.4,10.3,32.3,25,39.1
		V80.4C170.6,76.1,170,71.9,169.1,67.9z"/>
	<path class="st0" d="M151.7,70.5c1,0.1,2,0.2,3,0.2c5.1,0,9.9-1,14.3-2.8c-1-4-2.4-7.7-4.2-11.3C159.5,60.2,155,64.9,151.7,70.5z"
		/>
</g>
<circle class="st2" cx="174.6" cy="110.7" r="14.3"/>
<path class="st3" d="M110.7,147c1,0.3,2,0.4,3,0c3.4-1.3,4.9-5.8,2.3-8.8c-2.8-3.3-7-5.3-11.6-5.1c-5.2,0.2-9.7,3.2-12.1,7.4
	c-0.8,1.4-0.8,3-0.2,4.3c1,2.4,4,3.3,6.4,2.4c1.6-0.6,3.7-1.1,6.3-1.2C107.1,146.1,109.2,146.5,110.7,147z"/>
<path class="st3" d="M149.8,199.6c-8.8,16.8-26.4,28.3-46.6,28.3c-2.5,0-5-0.2-7.4-0.5v-22c6.8,3.2,14.3,4.9,22.3,4.9
	C130,210.3,141,206.3,149.8,199.6z"/>
<ellipse class="st3" cx="85.5" cy="81.1" rx="2.4" ry="4.4"/>
<ellipse class="st3" cx="117.3" cy="78" rx="2.4" ry="4.4"/>
<path class="st4" d="M99,91.5c0,0-10.4,13.1-6.7,18.8c3.7,5.7,10.4,3.8,10.4,3.8"/>
<path class="st2" d="M132,295.8L132,295.8c-20.1,0-36.3-16.3-36.3-36.3v-20.2c0-3.8,3.1-6.9,6.9-6.9h60.5c3.8,0,6.9,3.1,6.9,6.9
	v18.4C170,278.8,153,295.8,132,295.8z"/>
<path class="st4" d="M81.6,62.3c0-2.7,2.2-4.9,4.9-4.9s4.9,2.2,4.9,4.9"/>
<path class="st4" d="M113,62.3c0-2.7,2.2-4.9,4.9-4.9s4.9,2.2,4.9,4.9"/>
</svg>
