<?xml version="1.0" encoding="utf-8"?>
<!-- Generator: Adobe Illustrator 26.0.3, SVG Export Plug-In . SVG Version: 6.00 Build 0)  -->
<svg version="1.1" id="Layer_1" xmlns="http://www.w3.org/2000/svg" xmlns:xlink="http://www.w3.org/1999/xlink" x="0px" y="0px"
	 viewBox="0 0 17.7 17.7" style="enable-background:new 0 0 17.7 17.7;" xml:space="preserve">
<style type="text/css">
	.st0{fill:#695948;}
</style>
<g>
	<path class="st0" d="M14.8,7.3c-0.2-0.1-0.4,0-0.6,0.1l-0.4,0.4c-0.2,0.2-0.3,0.5-0.3,0.8c0,0.1,0,0.1,0,0.2c0,2.8-2.2,5-5,5
		c-2.3,0-4.3-1.6-4.9-3.8C3.4,9.7,3.4,9.3,3.4,8.9c0-0.5,0.1-1,0.2-1.4c0.6-2.1,2.6-3.6,4.8-3.6c0.8,0,1.6,0.2,2.4,0.6
		c0.3,0.2,0.7,0.1,0.9-0.1L12,4c0.2-0.2,0.2-0.4,0.2-0.6c0-0.2-0.2-0.4-0.3-0.5C10.8,2.3,9.6,2,8.4,2c-1.9,0-3.7,0.8-5,2.2
		c-1.3,1.4-2,3.3-1.8,5.2c0.2,3.3,3,6.1,6.3,6.3c0.2,0,0.4,0,0.5,0c1.7,0,3.4-0.6,4.6-1.8c1.4-1.3,2.2-3.1,2.2-5
		c0-0.4,0-0.7-0.1-1.1C15.1,7.6,15,7.4,14.8,7.3z"/>
	<path class="st0" d="M16.5,3.2l-0.8-0.8c-0.2-0.2-0.5-0.2-0.7,0L8.2,9C8,9.2,7.7,9.2,7.5,9L5.8,7.3c-0.2-0.2-0.5-0.2-0.7,0L4.4,8
		c-0.2,0.2-0.2,0.5,0,0.7L7.6,12c0.2,0.2,0.5,0.2,0.7,0l8.2-8.1C16.7,3.7,16.7,3.4,16.5,3.2z"/>
</g>
</svg>
