<?xml version="1.0" encoding="utf-8"?>
<!-- Generator: Adobe Illustrator 26.0.3, SVG Export Plug-In . SVG Version: 6.00 Build 0)  -->
<svg version="1.1" id="Layer_1" xmlns="http://www.w3.org/2000/svg" xmlns:xlink="http://www.w3.org/1999/xlink" x="0px" y="0px"
	 viewBox="0 0 432 432" style="enable-background:new 0 0 432 432;" xml:space="preserve">
<style type="text/css">
	.st0{clip-path:url(#SVGID_00000020359855192239867960000008063044868428750514_);}
	.st1{fill:#A5AA74;}
	.st2{clip-path:url(#SVGID_00000047749060450176961840000010851668941085826475_);}
	.st3{fill:#E1D7C8;}
	.st4{fill:#F1F4CC;}
	.st5{fill:#707643;}
</style>
<g>
	<defs>
		<path id="SVGID_1_" d="M216,432C112.6,432,23.4,358.4,3.9,257.1C1.3,243.7,0,229.9,0,216c0-1.3,0-2.6,0-3.8
			C0.2,201,1.3,189.8,3.2,179c9.3-54,38.6-102.1,82.6-135.4C123.5,15.1,168.5,0,216,0c59.9,0,115.6,24,156.8,67.5
			c13.4,14.1,24.8,30,33.9,47.1c16.5,31,25.3,66,25.3,101.4c0,3.4-0.1,6.5-0.2,9.4c-1.1,25.3-6.6,50-16.3,73.4
			c-19.7,47.5-55.9,86.5-101.8,109.8c-19,9.6-39.2,16.4-60.2,20.1C241.3,430.9,228.6,432,216,432z"/>
	</defs>
	<clipPath id="SVGID_00000080208907685791606650000014977314816987245725_">
		<use xlink:href="#SVGID_1_"  style="overflow:visible;"/>
	</clipPath>
	<g style="clip-path:url(#SVGID_00000080208907685791606650000014977314816987245725_);">
		<g>
			<path class="st1" d="M216,432C112.6,432,23.4,358.4,3.9,257.1C1.3,243.7,0,229.9,0,216c0-1.3,0-2.6,0-3.8
				C0.2,201,1.3,189.8,3.2,179c9.3-54,38.6-102.1,82.6-135.4C123.5,15.1,168.5,0,216,0c59.9,0,115.6,24,156.8,67.5
				c13.4,14.1,24.8,30,33.9,47.1c16.5,31,25.3,66,25.3,101.4c0,3.4-0.1,6.5-0.2,9.4c-1.1,25.3-6.6,50-16.3,73.4
				c-19.7,47.5-55.9,86.5-101.8,109.8c-19,9.6-39.2,16.4-60.2,20.1C241.3,430.9,228.6,432,216,432z M216,38.7
				c-39,0-75.9,12.4-106.8,35.8C73,101.8,48.9,141.3,41.3,185.6c-1.6,8.9-2.4,18-2.6,27.3c0,1.1,0,2.1,0,3.1
				c0,11.4,1.1,22.8,3.2,33.8c16,83.2,89.3,143.6,174.1,143.6c10.4,0,20.8-0.9,30.8-2.7c17.2-3,33.8-8.6,49.4-16.5
				c37.7-19.2,67.4-51.2,83.7-90.2c8-19.2,12.4-39.4,13.3-60.2c0.1-2.4,0.2-4.9,0.2-7.7c0-29.1-7.2-57.8-20.7-83.2l0,0
				c-7.5-14.1-16.8-27.1-27.8-38.7C310.9,58.3,265.2,38.7,216,38.7z"/>
		</g>
		<g>
			<g>
				<defs>
					<path id="SVGID_00000052825043005028120590000014186609056233563549_" d="M389.7,123.7c-8.4-15.7-18.8-30.1-30.9-42.9
						C322.9,42.9,272.2,19.3,216,19.3c-44.5,0-85.6,14.8-118.5,39.7c-39,29.5-66.6,73.1-75.2,123.3c-1.7,9.8-2.7,20-2.9,30.3
						c0,1.1,0,2.3,0,3.4c0,12.8,1.2,25.3,3.6,37.4c17.5,90.7,97.3,159.2,193.1,159.2c11.7,0,23.1-1,34.2-3
						c19.4-3.4,37.8-9.6,54.8-18.3c41.6-21.1,74.7-56.7,92.7-100c8.6-20.7,13.8-43.3,14.8-66.8c0.1-2.8,0.2-5.7,0.2-8.6
						C412.7,182.6,404.4,151.2,389.7,123.7z"/>
				</defs>
				<clipPath id="SVGID_00000001656830648305613350000017443733066785604799_">
					<use xlink:href="#SVGID_00000052825043005028120590000014186609056233563549_"  style="overflow:visible;"/>
				</clipPath>
				<g style="clip-path:url(#SVGID_00000001656830648305613350000017443733066785604799_);">
					<g>
						<path class="st3" d="M388.6,124.3c-8.4-15.7-18.8-30.1-30.9-42.9C321.9,43.6,271.2,20,214.9,20c-44.5,0-85.6,14.8-118.5,39.7
							c-39,29.5-66.6,73.1-75.2,123.3c-1.7,9.8-2.7,20-2.9,30.3c0,1.1,0,2.3,0,3.4c0,12.8,1.2,25.3,3.6,37.4
							c17.5,90.7,97.3,159.2,193.1,159.2c11.7,0,23.1-1,34.2-3c19.4-3.4,37.8-9.6,54.8-18.3c41.6-21.1,74.7-56.7,92.7-100
							c8.6-20.7,13.8-43.3,14.8-66.8c0.1-2.8,0.2-5.7,0.2-8.6C411.6,183.3,403.3,151.8,388.6,124.3z"/>
					</g>
					<g>
						<path class="st4" d="M0.8,135.6c-7.4-1.7-15.5-1-22.9,2.4c-17,7.8-25.1,27.1-19.2,44.4c-7.4,1.6-14.4,5.6-19.8,11.9
							c-12.1,14.2-11.3,35.1,1.3,48.3c-6.1,4.6-10.7,11.2-12.9,19.1c-5,18,4.6,36.6,21.6,43.2c-3.5,6.7-5,14.7-3.6,22.8
							c3.1,18.4,19.6,31.2,37.9,30c-0.4,7.6,1.7,15.4,6.3,22.2c11.3,16.4,33.8,20.6,50.2,9.2s20.6-33.8,9.2-50.2
							c-7.5-10.8-19.8-16.3-32-15.6c0.1-2.5,0-5.1-0.5-7.7c-2.2-13-11-23.1-22.4-27.6c1.2-2.2,2.1-4.6,2.8-7.1
							c3.5-12.7-0.2-25.6-8.7-34.5c2-1.5,3.9-3.3,5.6-5.3c8.5-10,10.6-23.3,6.7-34.9c2.5-0.5,4.9-1.3,7.3-2.4
							c12-5.5,19.5-16.6,20.9-28.8c2.5,0.5,5,0.9,7.6,0.9c13.1,0.1,24.7-6.8,31.1-17.3c2,1.5,4.2,2.9,6.5,4
							c11.9,5.6,25.3,4.2,35.5-2.5c1.2,2.2,2.6,4.4,4.2,6.4c8.4,10.1,21.1,14.5,33.2,12.7c0.1,2.5,0.5,5.1,1.1,7.6
							c3.3,12.7,13,22.1,24.8,25.6c-1,2.3-1.7,4.8-2.2,7.4c-3.6,19.6,9.4,38.5,29,42.1c19.6,3.6,38.5-9.4,42.1-29
							c3.4-18.4-7.8-36.1-25.3-41.2c2.9-7,3.7-15,1.6-23c-4.7-18.1-22.3-29.4-40.4-26.6c-0.3-7.6-3-15.2-8.2-21.5
							c-11.9-14.4-32.6-17.2-47.8-7.1c-3.5-6.8-9.2-12.5-16.6-16c-16.9-8-36.8-1.8-46.3,13.8c-6-4.7-13.6-7.5-21.8-7.5
							C18.3,103.3,2.8,117.4,0.8,135.6z"/>
					</g>
					<g>
						<path class="st4" d="M120.2,306.9c0,0-44.2-16.3-46.6-17.8c-2.3-1.6-54.8-79.6-54.8-79.6L39.5,175c0,0,37-25.6,41-25.6
							s51.3,0,51.3,0s31.9,18.4,34.2,21.6s16.2,36.4,15.5,38.5c-0.7,2-9.7,36.9-9.7,36.9"/>
					</g>
					<g>
						<path class="st4" d="M300.1,105.6c-4.7-1.1-9.8-0.6-14.5,1.5c-10.7,4.9-15.8,17.1-12.1,28c-4.7,1-9.1,3.5-12.5,7.5
							c-7.6,9-7.1,22.2,0.8,30.5c-3.8,2.9-6.8,7.1-8.1,12.1c-3.1,11.4,2.9,23.1,13.7,27.3c-2.2,4.3-3.1,9.3-2.3,14.4
							c2,11.6,12.4,19.7,23.9,19c-0.2,4.8,1.1,9.7,4,14c7.1,10.4,21.3,13,31.7,5.8c10.4-7.1,13-21.3,5.8-31.7
							c-4.7-6.8-12.5-10.3-20.2-9.8c0.1-1.6,0-3.2-0.3-4.8c-1.4-8.2-7-14.6-14.2-17.4c0.7-1.4,1.3-2.9,1.8-4.5
							c2.2-8-0.1-16.2-5.5-21.8c1.3-1,2.4-2.1,3.5-3.3c5.4-6.3,6.7-14.7,4.3-22.1c1.6-0.3,3.1-0.8,4.6-1.5
							c7.5-3.5,12.3-10.5,13.2-18.2c1.6,0.3,3.2,0.5,4.8,0.5c8.3,0.1,15.6-4.3,19.6-10.9c1.3,1,2.6,1.8,4.1,2.5
							c7.5,3.6,16,2.7,22.4-1.6c0.7,1.4,1.6,2.8,2.7,4c5.3,6.4,13.3,9.2,21,8c0.1,1.6,0.3,3.2,0.7,4.8c2.1,8,8.2,13.9,15.6,16.1
							c-0.6,1.5-1.1,3-1.4,4.6c-2.3,12.4,5.9,24.3,18.3,26.6c12.4,2.3,24.3-5.9,26.6-18.3c2.1-11.6-4.9-22.8-16-26
							c1.9-4.4,2.3-9.5,1-14.5c-3-11.4-14.1-18.6-25.5-16.8c-0.2-4.8-1.9-9.6-5.2-13.6c-7.5-9.1-20.6-10.9-30.2-4.5
							c-2.2-4.3-5.8-7.9-10.5-10.1c-10.7-5.1-23.3-1.1-29.3,8.7c-3.8-2.9-8.6-4.7-13.8-4.7C311.2,85.3,301.4,94.2,300.1,105.6z"/>
					</g>
					<g>
						<path class="st4" d="M372.9,272.4c0,0-44.2-16.3-46.6-17.8C324,253,271.5,175,271.5,175l20.7-34.5c0,0,37-25.6,41-25.6
							s51.3,0,51.3,0s31.9,18.4,34.2,21.6c2.3,3.2,16.2,36.4,15.5,38.5c-0.7,2-9.7,36.9-9.7,36.9"/>
					</g>
					<g>
						
							<ellipse transform="matrix(0.7071 -0.7071 0.7071 0.7071 -194.8165 279.3614)" class="st1" cx="239.8" cy="374.8" rx="174.5" ry="174.5"/>
					</g>
					<g>
						<g>
							<circle class="st1" cx="134.7" cy="200.4" r="32.3"/>
						</g>
						<g>
							<circle class="st1" cx="140.2" cy="233.3" r="45.9"/>
						</g>
						<g>
							<circle class="st1" cx="205.2" cy="260.5" r="32.3"/>
						</g>
						<g>
							<circle class="st1" cx="177.5" cy="232.7" r="32.3"/>
						</g>
						<g>
							<circle class="st1" cx="210.2" cy="193.7" r="32.3"/>
						</g>
						<g>
							<circle class="st1" cx="237.5" cy="232.7" r="32.3"/>
						</g>
						<g>
							<circle class="st1" cx="272.1" cy="258.3" r="32.3"/>
						</g>
						<g>
							
								<ellipse transform="matrix(0.965 -0.2622 0.2622 0.965 -55.4529 69.4872)" class="st1" cx="232.7" cy="242.6" rx="32.7" ry="33"/>
						</g>
						<g>
							<circle class="st1" cx="180.6" cy="177.1" r="40.4"/>
						</g>
						<g>
							<circle class="st1" cx="312.7" cy="241.8" r="32.3"/>
						</g>
						<g>
							<circle class="st1" cx="253.9" cy="201.3" r="53.3"/>
						</g>
						<g>
							<circle class="st1" cx="304.4" cy="190" r="32.3"/>
						</g>
						<g>
							<circle class="st1" cx="345.1" cy="205.6" r="23.2"/>
						</g>
						<g>
							<circle class="st1" cx="332.8" cy="242.6" r="28.3"/>
						</g>
						<g>
							<circle class="st1" cx="84.2" cy="209.6" r="32.3"/>
						</g>
						<g>
							<circle class="st1" cx="84.2" cy="260.5" r="15.9"/>
						</g>
						<g>
							<circle class="st1" cx="181.6" cy="274.1" r="15.9"/>
						</g>
					</g>
					<g>
						<g>
							<path class="st5" d="M28.9,221.6c1.9,1.2,4,2.3,6.2,3.1c11.2,4.2,23.2,1.8,32-5.1c1.2,1.9,2.7,3.8,4.3,5.5
								c8.4,8.5,20.3,11.5,31.1,8.9c0.3,2.3,0.8,4.5,1.6,6.8c4,11.3,13.5,19,24.5,21.2c-0.7,2.2-1.2,4.5-1.4,6.8
								c-1.1,11.9,4.2,22.9,13.2,29.6c-1.5,1.7-2.9,3.6-4.2,5.6c-6.1,10.3-5.8,22.6-0.5,32.4c-2.1,0.9-4.2,2-6.1,3.3
								c-14.9,10.3-18.7,30.8-8.4,45.7c10.3,14.9,30.8,18.7,45.7,8.4c14-9.6,18.2-28.2,10.2-42.8c6.4-2.6,12-7.3,15.8-13.7
								c8.6-14.7,4.6-33.2-8.8-43.1c4.7-5.1,7.8-11.7,8.5-19.1c1.6-16.9-9.9-32.1-26.2-35.3c2.1-6.6,2.1-13.9-0.4-21
								c-5.7-16-22.5-24.9-38.7-20.9c-0.9-6.9-3.9-13.5-9.2-18.8c-11.9-12.1-30.9-13-43.9-2.6c-3.7-5.9-9.3-10.6-16.3-13.2
								c-15.9-5.9-33.5,1.3-40.9,16.2c-5.8-3.7-12.9-5.7-20.3-5.1c-16.9,1.4-29.8,15.3-30.2,32c-6.9-0.9-14.1,0.3-20.6,4
								c-14.8,8.4-20.6,26.5-13.9,41.7c-6.6,2.1-12.6,6.2-17,12.3c-9.8,13.8-7.4,32.7,5.1,43.7c-5.1,4.7-8.8,11-10.2,18.3
								c-3.3,17.8,8.5,35,26.4,38.3c17.8,3.3,35-8.5,38.3-26.4c2.2-11.8-2.2-23.2-10.6-30.6c1.7-1.5,3.2-3.3,4.6-5.2
								c6.9-9.7,7.8-22,3.3-32.2c2.2-0.7,4.3-1.6,6.4-2.8c10.4-5.9,16.3-16.6,16.6-27.8c2.3,0.3,4.6,0.4,7,0.2"/>
						</g>
						<g>
							<path class="st5" d="M-61.3,442.5l8.6-144.7c0,0,35.7-88.5,47.1-91.4c11.4-2.9,61.4-24.6,75.7-19.4
								c14.3,5.1,70,35.1,75.7,42.3c5.7,7.1,34.3,56.7,34.3,61.9c0,5.2-17.1,70-17.1,70l-70,63.7"/>
						</g>
					</g>
					<g>
						<path class="st5" d="M567.3,256.4c3.2-7.6,4-16.3,1.8-24.9c-5.1-19.6-24.1-31.8-43.7-28.8c-0.3-8.2-3.3-16.4-8.9-23.3
							c-12.9-15.6-35.3-18.6-51.8-7.7c-3.8-7.3-9.9-13.5-17.9-17.3c-18.3-8.7-39.9-2-50.2,14.9c-6.5-5-14.7-8.1-23.6-8.1
							c-20.2-0.1-37,15.1-39.1,34.7c-8-1.8-16.7-1.1-24.8,2.6c-18.4,8.4-27.1,29.3-20.8,48c-8.1,1.8-15.6,6.1-21.4,12.8
							c-13.1,15.4-12.2,38,1.5,52.3c-6.6,5-11.6,12.1-14,20.7c-5.4,19.5,5,39.6,23.4,46.8c-3.8,7.3-5.4,15.9-3.9,24.6
							c3.4,19.9,21.3,33.8,41,32.5c-0.4,8.2,1.8,16.7,6.9,24c12.3,17.8,36.6,22.3,54.4,10c7.4-5.1,12.5-12.4,15-20.4
							c23.7,9.1,57.4,21.5,57.4,21.5L537,367.7c0,0,4.9-18.9,9.3-36c1,0.3,1.9,0.5,2.9,0.7c21.2,3.9,41.6-10.1,45.5-31.4
							C598.4,281.1,586.3,262,567.3,256.4z"/>
					</g>
				</g>
			</g>
		</g>
	</g>
</g>
</svg>
