<?xml version="1.0" encoding="utf-8"?>
<!-- Generator: Adobe Illustrator 26.0.3, SVG Export Plug-In . SVG Version: 6.00 Build 0)  -->
<svg version="1.1" id="Layer_1" xmlns="http://www.w3.org/2000/svg" xmlns:xlink="http://www.w3.org/1999/xlink" x="0px" y="0px"
	 viewBox="0 0 432 432" style="enable-background:new 0 0 432 432;" xml:space="preserve">
<style type="text/css">
	.st0{clip-path:url(#SVGID_00000050634015365602906440000016942989358634243773_);}
	.st1{fill:#695948;}
	.st2{fill:#E1D7C8;}
	.st3{fill:#B69B78;}
</style>
<g>
	<defs>
		<path id="SVGID_1_" d="M216,432C112.6,432,23.4,358.4,3.9,257.1C1.3,243.7,0,229.9,0,216c0-1.3,0-2.6,0-3.8
			C0.2,201,1.3,189.8,3.2,179c9.3-54,38.6-102.1,82.6-135.3C123.5,15.1,168.5,0,216,0c59.9,0,115.6,24,156.8,67.5
			c13.4,14.1,24.8,30,33.9,47.1l0,0c16.5,31,25.3,66.1,25.3,101.4c0,3.4-0.1,6.5-0.2,9.4c-1.1,25.3-6.6,50-16.3,73.4
			c-19.7,47.5-55.9,86.5-101.8,109.8c-19,9.6-39.2,16.4-60.2,20.1C241.3,430.9,228.6,432,216,432z"/>
	</defs>
	<clipPath id="SVGID_00000178162904850230127280000003737186359371735204_">
		<use xlink:href="#SVGID_1_"  style="overflow:visible;"/>
	</clipPath>
	<g style="clip-path:url(#SVGID_00000178162904850230127280000003737186359371735204_);">
		<path class="st1" d="M216,432C112.6,432,23.4,358.4,3.9,257.1C1.3,243.7,0,229.9,0,216c0-1.3,0-2.6,0-3.8
			C0.2,201,1.3,189.8,3.2,179c9.3-54,38.6-102.1,82.6-135.3C123.5,15.1,168.5,0,216,0c59.9,0,115.6,24,156.8,67.5
			c13.4,14.1,24.8,30,33.9,47.1l0,0c16.5,31,25.3,66.1,25.3,101.4c0,3.4-0.1,6.5-0.2,9.4c-1.1,25.3-6.6,50-16.3,73.4
			c-19.7,47.5-55.9,86.5-101.8,109.8c-19,9.6-39.2,16.4-60.2,20.1C241.3,430.9,228.6,432,216,432z M216,38.7
			c-39,0-75.9,12.4-106.8,35.8C73,101.8,48.9,141.3,41.3,185.6c-1.6,8.9-2.4,18-2.6,27.3c0,1.1,0,2.1,0,3.1
			c0,11.4,1.1,22.8,3.2,33.8c16,83.2,89.3,143.6,174.1,143.6c10.4,0,20.8-0.9,30.8-2.7c17.2-3,33.8-8.6,49.4-16.5
			c37.7-19.2,67.4-51.2,83.7-90.2c8-19.2,12.4-39.4,13.3-60.2c0.1-2.4,0.2-4.9,0.2-7.7c0-29.1-7.2-57.8-20.7-83.2l0,0
			c-7.5-14.1-16.8-27.1-27.8-38.7C310.9,58.3,265.2,38.7,216,38.7z"/>
	</g>
	<g style="clip-path:url(#SVGID_00000178162904850230127280000003737186359371735204_);">
		<g>
			<circle class="st2" cx="215.6" cy="216" r="196.7"/>
		</g>
		<g>
			<g>
				<path class="st1" d="M205.9,343.7l1.3-240.8l90.9,0.5c3.4,0,6,3.1,5.5,6.5l-5.1,0.1l-30.8,220.2c-1.3,8-8.2,13.9-16.4,13.8
					L205.9,343.7z"/>
			</g>
		</g>
		<g>
			<g>
				<path class="st1" d="M223.3,343.8l1.3-240.8l-90.9-0.5c-3.4,0-6.1,3-5.6,6.4l5.1,0.1l28.3,220.5c1.2,8,8.1,14,16.2,14
					L223.3,343.8z"/>
			</g>
		</g>
		<g>
			<g>
				<path class="st3" d="M279.2,280.2c-17.8,1.5-37.6,2.3-59.2,1.7c-24.8-0.7-47.3-3-67.1-6c-5.2-36-10.5-71.9-15.7-107.9
					c23.9-2.5,51-3.9,80.8-3.2c28.2,0.6,53.9,3.1,76.7,6.3C289.6,207.5,284.4,243.8,279.2,280.2z"/>
			</g>
		</g>
		<g>
			<path class="st2" d="M217.1,187.9l9.9,18.9c0.5,0.9,1.3,1.5,2.3,1.6l21.2,2.6c2.4,0.3,3.5,3.3,1.8,5l-15,15.2
				c-0.7,0.7-1,1.7-0.8,2.6l4.1,21c0.5,2.4-2,4.3-4.2,3.2l-19.1-9.5c-0.9-0.4-1.9-0.4-2.8,0.1l-18.7,10.3c-2.1,1.2-4.7-0.6-4.4-3
				l3.1-21.1c0.1-1-0.2-1.9-0.9-2.6L178,217.6c-1.8-1.7-0.9-4.7,1.5-5.1l21-3.5c1-0.2,1.8-0.8,2.2-1.7l9-19.3
				C212.8,185.8,216,185.7,217.1,187.9z"/>
		</g>
	</g>
</g>
</svg>
