<?xml version="1.0" encoding="utf-8"?>
<!-- Generator: Adobe Illustrator 26.0.3, SVG Export Plug-In . SVG Version: 6.00 Build 0)  -->
<svg version="1.1" id="Layer_1" xmlns="http://www.w3.org/2000/svg" xmlns:xlink="http://www.w3.org/1999/xlink" x="0px" y="0px"
	 viewBox="0 0 432 432" style="enable-background:new 0 0 432 432;" xml:space="preserve">
<style type="text/css">
	.st0{clip-path:url(#SVGID_00000054951738752920575570000002711777718098393996_);}
	.st1{fill:#F4F1ED;}
	.st2{fill:#F4F1EE;}
	.st3{fill:#F1EBE3;}
	.st4{fill:#B69B78;}
	.st5{fill:#BB9F83;}
	.st6{fill:#E1D7C8;}
	.st7{fill:#695948;}
</style>
<g>
	<defs>
		<circle id="SVGID_1_" cx="216" cy="216" r="216"/>
	</defs>
	<clipPath id="SVGID_00000137101370760691362630000010506344983472197303_">
		<use xlink:href="#SVGID_1_"  style="overflow:visible;"/>
	</clipPath>
	<g style="clip-path:url(#SVGID_00000137101370760691362630000010506344983472197303_);">
		<g>
			
				<rect x="24.8" y="-12" transform="matrix(-1 -4.489621e-11 4.489621e-11 -1 832.8786 513.9403)" class="st1" width="783.3" height="538"/>
		</g>
		<polygon class="st2" points="768.2,-27.6 768.2,-17.8 768.2,-8 768.2,1.7 768.2,11.5 768.2,21.3 768.2,31.1 768.2,40.9 
			768.2,50.7 768.2,60.4 768.2,70.2 768.2,80 768.2,89.8 768.2,99.6 768.2,109.3 768.2,119.1 768.2,128.9 768.2,138.7 768.2,148.5 
			768.2,158.3 768.2,168 768.2,177.8 768.2,187.6 768.2,197.4 768.2,207.2 768.2,217 768.2,226.7 768.2,236.5 768.2,246.3 
			768.2,256.1 768.2,265.9 768.2,275.6 768.2,285.4 768.2,295.2 768.2,305 768.2,314.8 768.2,324.6 768.2,334.3 768.2,344.1 
			768.2,353.9 768.2,363.7 768.2,373.5 768.2,383.2 768.2,393 768.2,402.8 768.2,412.6 768.2,422.4 768.2,432.2 768.2,441.9 
			768.2,451.7 768.2,461.5 768.2,471.3 768.2,481.1 768.2,490.9 768.2,500.6 768.2,510.4 -15.1,510.4 -15.1,500.6 -15.1,490.9 
			-15.1,481.1 -15.1,471.3 -15.1,461.5 -15.1,451.7 -15.1,441.9 -15.1,432.2 -15.1,422.4 -15.1,412.6 -15.1,402.8 -15.1,393 
			-15.1,383.2 -15.1,373.5 -15.1,363.7 -15.1,353.9 -15.1,344.1 -15.1,334.3 -15.1,324.6 -15.1,314.8 -15.1,305 -15.1,295.2 
			-15.1,285.4 -15.1,275.6 -15.1,265.9 -15.1,256.1 -15.1,246.3 -15.1,236.5 -15.1,226.7 -15.1,217 -15.1,207.2 -15.1,197.4 
			-15.1,187.6 -15.1,177.8 -15.1,168 -15.1,158.3 -15.1,148.5 -15.1,138.7 -15.1,128.9 -15.1,119.1 -15.1,109.3 -15.1,99.6 
			-15.1,89.8 -15.1,80 -15.1,70.2 -15.1,60.4 -15.1,50.7 -15.1,40.9 -15.1,31.1 -15.1,21.3 -15.1,11.5 -15.1,1.7 -15.1,-8 
			-15.1,-17.8 -15.1,-27.6 		"/>
		<g>
			<path class="st3" d="M426.5,513.7l0.4-4.3c2.8,0.3,5.6,0.4,8.4,0.5l-0.1,4.3C432.3,514.2,429.4,514,426.5,513.7z M443.8,509.9
				c2.8-0.1,5.6-0.4,8.4-0.7l0.5,4.3c-2.9,0.3-5.8,0.6-8.7,0.7L443.8,509.9z M409.3,510.8l1-4.2c2.7,0.7,5.5,1.3,8.2,1.7l-0.7,4.2
				C415,512.1,412.1,511.5,409.3,510.8z M460.5,507.8c2.8-0.5,5.5-1.2,8.2-1.9l1.1,4.1c-2.8,0.8-5.6,1.4-8.5,2L460.5,507.8z
				 M392.7,505.3l1.6-4c2.6,1.1,5.2,2.1,7.9,2.9l-1.4,4.1C398.1,507.4,395.4,506.4,392.7,505.3z M476.8,503.4c2.6-0.9,5.3-2,7.8-3.1
				l1.7,3.9c-2.7,1.2-5.4,2.3-8.1,3.3L476.8,503.4z M377.1,497.4l2.2-3.7c2.4,1.4,4.9,2.8,7.4,4.1l-1.9,3.8
				C382.2,500.3,379.6,498.9,377.1,497.4z M492.2,496.5c2.5-1.3,4.9-2.8,7.3-4.3l2.3,3.6c-2.4,1.6-5,3-7.6,4.4L492.2,496.5z
				 M362.8,487.4l2.7-3.3c2.2,1.8,4.4,3.5,6.7,5.1l-2.5,3.5C367.4,491,365.1,489.2,362.8,487.4z M506.4,487.5
				c2.2-1.7,4.5-3.4,6.6-5.3l2.8,3.3c-2.2,1.9-4.5,3.7-6.8,5.5L506.4,487.5z M350.2,475.3l3.2-2.9c1.9,2.1,3.9,4.1,5.9,6l-3,3.1
				C354.2,479.5,352.1,477.4,350.2,475.3z M519.2,476.5c2-2,3.9-4.1,5.7-6.2l3.3,2.8c-1.9,2.2-3.9,4.3-6,6.4L519.2,476.5z
				 M339.4,461.5l3.6-2.4c1.5,2.3,3.2,4.6,4.9,6.8l-3.4,2.6C342.7,466.3,341,463.9,339.4,461.5z M530.2,463.7
				c1.7-2.3,3.3-4.6,4.8-6.9l3.6,2.3c-1.5,2.4-3.2,4.9-5,7.2L530.2,463.7z M330.8,446.3l3.9-1.8c1.2,2.5,2.5,5.1,3.9,7.5l-3.7,2.1
				C333.4,451.6,332,448.9,330.8,446.3z M539.2,449.5c1.3-2.5,2.6-5,3.7-7.6l3.9,1.7c-1.2,2.6-2.5,5.3-3.8,7.8L539.2,449.5z
				 M324.5,430l4.1-1.2c0.8,2.7,1.7,5.4,2.7,8l-4,1.6C326.3,435.6,325.3,432.8,324.5,430z M546,434.1c0.9-2.7,1.8-5.4,2.6-8l4.1,1.1
				c-0.8,2.8-1.7,5.6-2.6,8.3L546,434.1z M320.6,412.9l4.3-0.6c0.4,2.8,0.9,5.6,1.5,8.3l-4.2,0.9
				C321.6,418.7,321.1,415.8,320.6,412.9z M550.5,417.9c0.5-2.7,1-5.5,1.3-8.3l4.3,0.5c-0.4,2.9-0.8,5.8-1.4,8.6L550.5,417.9z
				 M319.4,395.5h4.3c0,2.8,0.1,5.6,0.3,8.4l-4.3,0.3C319.5,401.3,319.4,398.4,319.4,395.5z M552.6,401.2c0.1-1.9,0.1-3.8,0.1-5.7
				c0-0.9,0-1.8,0-2.8l4.3-0.1c0,0.9,0,1.9,0,2.8c0,2,0,3.9-0.1,5.9L552.6,401.2z M319.4,392.4c0.1-2.9,0.3-5.9,0.5-8.7l4.3,0.4
				c-0.3,2.8-0.4,5.6-0.5,8.4L319.4,392.4z M551.1,376l4.2-0.7c0.5,2.9,0.9,5.8,1.2,8.7l-4.3,0.4C551.9,381.6,551.5,378.7,551.1,376
				z M321.1,375c0.5-2.8,1.1-5.7,1.8-8.6l4.2,1c-0.7,2.7-1.3,5.5-1.7,8.2L321.1,375z M547,359.6l4.1-1.3c0.9,2.8,1.7,5.6,2.4,8.4
				l-4.2,1C548.7,365,547.9,362.3,547,359.6z M325.4,358.1c0.9-2.8,1.9-5.5,3.1-8.2l4,1.7c-1.1,2.6-2.1,5.2-2.9,7.9L325.4,358.1z
				 M540.6,344l3.8-1.9c1.3,2.6,2.5,5.3,3.6,8l-4,1.6C543,349.1,541.8,346.6,540.6,344z M332.1,342c1.3-2.6,2.7-5.2,4.2-7.7l3.7,2.2
				c-1.4,2.4-2.8,4.9-4.1,7.4L332.1,342z M531.9,329.6l3.5-2.5c1.7,2.4,3.3,4.8,4.8,7.3l-3.7,2.2C535,334.3,533.5,331.9,531.9,329.6
				z M341.1,327c1.7-2.4,3.5-4.7,5.3-7l3.3,2.7c-1.8,2.2-3.5,4.4-5.1,6.7L341.1,327z M521.2,316.6l3.1-3c2,2.1,3.9,4.3,5.8,6.6
				l-3.3,2.7C525,320.7,523.1,318.6,521.2,316.6z M352.2,313.5c2-2.1,4.1-4.1,6.3-6.1l2.9,3.2c-2.1,1.9-4.1,3.9-6,5.9L352.2,313.5z
				 M508.7,305.2l2.7-3.4c2.3,1.8,4.5,3.7,6.7,5.6l-2.9,3.2C513.1,308.8,510.9,307,508.7,305.2z M365.2,301.8
				c2.3-1.8,4.7-3.5,7.1-5.1l2.4,3.6c-2.3,1.6-4.6,3.2-6.8,4.9L365.2,301.8z M494.7,295.9l2.1-3.7c2.5,1.4,5,3,7.4,4.6l-2.4,3.6
				C499.5,298.7,497.1,297.2,494.7,295.9z M379.7,292c2.5-1.4,5.2-2.8,7.8-4l1.8,3.9c-2.5,1.2-5,2.5-7.5,3.9L379.7,292z
				 M479.5,288.6l1.6-4c2.7,1.1,5.4,2.2,8,3.5l-1.8,3.9C484.7,290.8,482.1,289.7,479.5,288.6z M395.5,284.6c2.7-1,5.5-2,8.3-2.8
				l1.2,4.1c-2.7,0.8-5.4,1.7-8,2.7L395.5,284.6z M463.4,283.7l0.9-4.2c2.8,0.6,5.7,1.4,8.5,2.2l-1.3,4.1
				C468.8,285.1,466.1,284.3,463.4,283.7z M412.3,279.5c2.8-0.6,5.7-1.2,8.6-1.6l0.6,4.3c-2.8,0.4-5.5,0.9-8.3,1.5L412.3,279.5z
				 M446.7,281.3l0.3-4.3c2.9,0.2,5.8,0.5,8.7,1l-0.6,4.3C452.3,281.8,449.5,281.5,446.7,281.3z M429.6,277c2.9-0.2,5.8-0.3,8.6-0.3
				h0.1l-0.1,4.3c-2.8,0-5.6,0.1-8.3,0.3L429.6,277z"/>
		</g>
		<g>
			<path class="st4" d="M435.5,547.3c0-121.2-98.3-219.5-219.5-219.5S-3.5,426-3.5,547.3"/>
		</g>
		<g>
			<path class="st5" d="M211.2,348.9l-37.8-9.4c-86.8,29.3-149.3,111.3-149.3,208h81C109.8,443.8,211.2,348.9,211.2,348.9z"/>
		</g>
		<g>
			<g>
				<path class="st3" d="M372.2-9.4c0.1-1.5,0.1-3,0.1-4.4H368c0,1.3,0,2.7-0.1,4.2L372.2-9.4z"/>
			</g>
			<g>
				<path class="st3" d="M708.8,536.9l2.7-3.4c2.1,1.7,4.4,3.3,6.8,4.9l-2.4,3.6C713.4,540.3,711.1,538.6,708.8,536.9z M696.3,524.6
					l3.4-2.7c1.7,2.1,3.6,4.2,5.6,6.1l-3,3.1C700.1,529,698.1,526.8,696.3,524.6z M687.3,509.3l4-1.6c1.1,2.6,2.3,5.1,3.7,7.4
					l-3.7,2.2C689.8,514.8,688.4,512.1,687.3,509.3z M682.5,492.4l4.2-0.8c0.5,2.9,1.2,5.6,1.9,8.2l-4.1,1.1
					C683.7,498.3,683.1,495.5,682.5,492.4z M680.3,475.2l4.3-0.4c0.3,2.9,0.6,5.7,0.9,8.5l-4.3,0.5
					C680.9,481,680.6,478.1,680.3,475.2z M679,458l4.3-0.3l0.6,8.6l-4.3,0.3L679,458z M677.6,440.9l4.3-0.4c0.3,2.9,0.5,5.8,0.7,8.6
					l-4.3,0.3C678.1,446.7,677.9,443.8,677.6,440.9z M675.7,423.9l4.3-0.6c0.4,2.9,0.7,5.8,1,8.6l-4.3,0.5
					C676.4,429.6,676.1,426.8,675.7,423.9z M673.2,407l4.2-0.7c0.5,2.9,1,5.8,1.4,8.5l-4.2,0.6C674.1,412.7,673.7,409.9,673.2,407z
					 M669.8,390.2l4.2-0.9c0.6,2.9,1.2,5.7,1.8,8.5l-4.2,0.8C671,395.9,670.5,393.1,669.8,390.2z M665.8,373.6l4.1-1.1
					c0.8,2.8,1.5,5.6,2.2,8.4l-4.2,1C667.2,379.2,666.5,376.4,665.8,373.6z M662.1,361l-1.2-3.8l4.1-1.3l1.2,3.8
					c0.5,1.5,0.9,3,1.3,4.5l-4.1,1.2C663,363.9,662.6,362.5,662.1,361z M655.4,341.1l4-1.5c1,2.6,2,5.3,2.9,8.1l-4.1,1.4
					C657.3,346.3,656.4,343.7,655.4,341.1z M648.8,325.4l3.9-1.8c1.2,2.5,2.4,5.2,3.5,7.9l-4,1.7
					C651.1,330.5,649.9,327.9,648.8,325.4z M640.7,310.6l3.6-2.3c1.5,2.4,3,4.9,4.4,7.5l-3.8,2C643.6,315.3,642.1,312.9,640.7,310.6
					z M630.7,297l3.2-2.8c1.9,2.1,3.7,4.4,5.5,6.8l-3.5,2.5C634.3,301.3,632.5,299.1,630.7,297z M618.6,285.6l2.6-3.4
					c2.3,1.8,4.6,3.7,6.7,5.7l-3,3.1C622.9,289.1,620.8,287.3,618.6,285.6z M604.4,276.8l1.9-3.9c2.7,1.3,5.3,2.7,7.7,4.2l-2.3,3.7
					C609.4,279.4,606.9,278.1,604.4,276.8z M588.7,270.7l1.3-4.1c2.9,0.9,5.6,1.9,8.2,2.9l-1.6,4
					C594.2,272.5,591.5,271.5,588.7,270.7z M572.3,266.5l0.8-4.2c2.9,0.6,5.7,1.2,8.5,1.9l-1,4.2
					C577.9,267.7,575.1,267.1,572.3,266.5z M555.5,263.7l0.6-4.3c2.9,0.4,5.8,0.8,8.6,1.3l-0.7,4.2
					C561.2,264.6,558.4,264.1,555.5,263.7z M538.5,261.7l0.4-4.3c2.9,0.3,5.8,0.6,8.6,0.9l-0.5,4.3
					C544.2,262.3,541.4,262,538.5,261.7z M521.4,260.1l0.4-4.3c2.9,0.3,5.8,0.5,8.6,0.8l-0.4,4.3
					C527.2,260.6,524.3,260.3,521.4,260.1z M504.3,258.6l0.4-4.3l8.6,0.7l-0.4,4.3L504.3,258.6z M487.1,257.2l0.4-4.3l8.6,0.7
					l-0.4,4.3L487.1,257.2z M470,255.6l0.4-4.3l8.6,0.8l-0.4,4.3L470,255.6z M452.8,253.8l0.5-4.3c2.9,0.3,5.7,0.6,8.5,0.9l-0.4,4.3
					C458.6,254.4,455.7,254.1,452.8,253.8z M442.3,252.6c-2.3-0.3-4.5-0.6-6.6-0.9l0.7-4.2c2.1,0.3,4.2,0.6,6.4,0.9l2,0.2l-0.5,4.3
					L442.3,252.6z M418.6,247.7l1.3-4.1c2.6,0.8,5.4,1.6,8.1,2.2l-1,4.2C424.2,249.3,421.4,248.6,418.6,247.7z M402.4,241l2-3.8
					c2.4,1.3,5,2.5,7.6,3.5l-1.6,4C407.6,243.6,405,242.4,402.4,241z M387.7,231.3l2.7-3.3c2.1,1.8,4.4,3.4,6.7,5l-2.4,3.6
					C392.4,234.9,390,233.2,387.7,231.3z M375.5,218.6l3.4-2.6c1.7,2.2,3.6,4.3,5.5,6.3l-3.1,3C379.3,223.2,377.3,221,375.5,218.6z
					 M366.2,203.7l3.8-1.9c1.3,2.5,2.6,5,4.1,7.3l-3.6,2.3C368.9,209,367.5,206.4,366.2,203.7z M359.7,187.4l4.1-1.3
					c0.8,2.7,1.8,5.4,2.8,8l-4,1.6C361.5,193,360.6,190.2,359.7,187.4z M355.6,170.5l4.2-0.8c0.5,2.8,1.1,5.6,1.7,8.3l-4.2,1
					C356.7,176.2,356.1,173.4,355.6,170.5z M353.4,153.2l4.3-0.4c0.2,2.8,0.5,5.7,0.9,8.5l-4.3,0.5
					C353.9,159,353.6,156.1,353.4,153.2z M352.6,135.9l4.3-0.1c0,2.9,0.1,5.7,0.2,8.5l-4.3,0.2C352.7,141.7,352.6,138.8,352.6,135.9
					z M352.6,127.2c0.1-2.9,0.1-5.8,0.3-8.7l4.3,0.2c-0.1,2.9-0.2,5.7-0.3,8.5L352.6,127.2z M353.3,109.9c0.2-2.9,0.4-5.8,0.7-8.6
					l4.3,0.4c-0.2,2.8-0.5,5.7-0.6,8.5L353.3,109.9z M354.8,92.7c0.3-2.9,0.6-5.7,0.9-8.6l4.3,0.5c-0.3,2.8-0.6,5.7-0.9,8.5
					L354.8,92.7z M356.8,75.5c0.4-2.9,0.8-5.7,1.1-8.5l4.3,0.6c-0.4,2.8-0.8,5.7-1.1,8.5L356.8,75.5z M359.1,58.4
					c0.4-2.9,0.8-5.7,1.3-8.5l4.2,0.6c-0.4,2.8-0.8,5.6-1.3,8.5L359.1,58.4z M361.7,41.4l1.3-8.5l4.2,0.6l-1.3,8.5L361.7,41.4z
					 M364.2,24.4c0.4-2.9,0.8-5.7,1.2-8.5l4.3,0.6c-0.4,2.8-0.8,5.6-1.2,8.5L364.2,24.4z M366.5,7.4c0.3-2.9,0.6-5.8,0.9-8.5
					l4.3,0.4c-0.2,2.8-0.5,5.6-0.9,8.6L366.5,7.4z"/>
			</g>
			<g>
				<path class="st3" d="M728.1,549.2l2-3.8c-1.3-0.7-2.5-1.4-3.7-2.1l-2.1,3.7C725.5,547.8,726.8,548.5,728.1,549.2z"/>
			</g>
		</g>
		<g>
			<path class="st3" d="M153.8,306.7l0-4.3l1.3,0c2.4,0,4.8-0.1,7.2-0.2l0.3,4.3c-2.5,0.2-4.9,0.2-7.4,0.2L153.8,306.7z
				 M136.4,305.2l0.7-4.2c2.8,0.4,5.6,0.8,8.4,1l-0.4,4.3C142.2,306.1,139.3,305.7,136.4,305.2z M170.7,301.4
				c2.8-0.4,5.6-0.9,8.3-1.5l0.9,4.2c-2.8,0.6-5.7,1.1-8.6,1.5L170.7,301.4z M119.4,301.1l1.3-4.1c2.6,0.9,5.4,1.6,8.1,2.3l-1,4.2
				C125,302.8,122.2,302,119.4,301.1z M187.2,297.8c2.7-0.8,5.3-1.7,8-2.7l1.5,4c-2.7,1-5.5,2-8.3,2.8L187.2,297.8z M103.2,294.5
				l1.9-3.8c2.5,1.2,5.1,2.4,7.7,3.5l-1.6,4C108.5,297,105.8,295.8,103.2,294.5z M202.9,291.8c2.5-1.2,5-2.5,7.5-3.9l2.1,3.7
				c-2.5,1.4-5.1,2.8-7.8,4L202.9,291.8z M88.2,285.5l2.5-3.5c2.3,1.6,4.7,3.2,7.1,4.6l-2.2,3.7C93.1,288.8,90.6,287.2,88.2,285.5z
				 M217.5,283.5c2.3-1.6,4.6-3.2,6.8-5l2.7,3.4c-2.3,1.8-4.6,3.5-7.1,5.2L217.5,283.5z M74.7,274.4l3-3.1c2,1.9,4.1,3.8,6.3,5.6
				l-2.7,3.3C79,278.3,76.8,276.4,74.7,274.4z M230.7,273c2.1-1.9,4.1-3.9,6-5.9l3.1,2.9c-2,2.1-4.1,4.2-6.2,6.2L230.7,273z
				 M63,261.4l3.4-2.6c1.7,2.2,3.5,4.4,5.4,6.5l-3.2,2.9C66.7,265.9,64.8,263.7,63,261.4z M242.3,260.8c1.8-2.2,3.5-4.5,5-6.8
				l3.5,2.4c-1.6,2.4-3.4,4.7-5.2,7L242.3,260.8z M53.5,246.8l3.8-2.1c1.4,2.4,2.8,4.9,4.4,7.2l-3.6,2.4
				C56.4,251.8,54.9,249.3,53.5,246.8z M251.8,246.9c1.4-2.4,2.7-4.9,4-7.4l3.9,1.9c-1.3,2.6-2.7,5.2-4.1,7.7L251.8,246.9z
				 M46.2,230.9l4-1.5c1,2.6,2.1,5.2,3.2,7.8l-3.9,1.8C48.3,236.3,47.2,233.6,46.2,230.9z M259.2,231.7c1-2.6,2-5.3,2.8-8l4.1,1.3
				c-0.9,2.8-1.8,5.6-2.9,8.3L259.2,231.7z M41.4,214.1l4.2-0.9c0.6,2.7,1.2,5.5,2,8.2l-4.1,1.2C42.6,219.8,41.9,216.9,41.4,214.1z
				 M264.2,215.6c0.6-2.7,1.1-5.5,1.6-8.3l4.2,0.6c-0.4,2.9-1,5.8-1.6,8.6L264.2,215.6z M39.2,196.7l4.3-0.2
				c0.1,2.8,0.4,5.6,0.8,8.4l-4.3,0.5C39.6,202.5,39.3,199.6,39.2,196.7z M266.7,199c0.2-2.8,0.3-5.6,0.3-8.4h4.3
				c0,2.9-0.1,5.8-0.3,8.7L266.7,199z M39,188c0.1-2.9,0.2-5.8,0.5-8.7l4.3,0.4c-0.3,2.8-0.4,5.6-0.5,8.4L39,188z M266.4,178.8
				l4.3-0.4c0.3,2.9,0.5,5.8,0.6,8.7l-4.3,0.1C266.9,184.4,266.7,181.5,266.4,178.8z M40.7,170.6c0.5-2.9,1.1-5.8,1.8-8.6l4.2,1.1
				c-0.7,2.7-1.3,5.5-1.8,8.2L40.7,170.6z M263.4,162.2l4.2-1.1c0.7,2.8,1.4,5.7,1.9,8.5l-4.2,0.8
				C264.7,167.7,264.1,164.9,263.4,162.2z M45,153.6c0.9-2.8,2-5.5,3.1-8.2l4,1.7c-1.1,2.6-2.1,5.2-3,7.9L45,153.6z M257.9,146.3
				l3.9-1.7c1.2,2.7,2.2,5.4,3.2,8.2l-4.1,1.4C260,151.5,259,148.9,257.9,146.3z M51.8,137.5c1.3-2.6,2.8-5.1,4.3-7.6l3.7,2.2
				c-1.5,2.4-2.9,4.9-4.1,7.3L51.8,137.5z M250.1,131.4l3.6-2.3c1.5,2.5,3,5,4.4,7.6l-3.8,2C253,136.2,251.6,133.8,250.1,131.4z
				 M61,122.6c1.7-2.3,3.5-4.7,5.4-6.9l3.3,2.8c-1.8,2.2-3.6,4.4-5.2,6.6L61,122.6z M240.1,117.8l3.3-2.8c1.9,2.2,3.7,4.5,5.4,6.9
				l-3.5,2.5C243.7,122.2,242,120,240.1,117.8z M72.3,109.2c2-2.1,4.2-4.1,6.4-6l2.8,3.2c-2.1,1.8-4.2,3.8-6.1,5.8L72.3,109.2z
				 M228.2,105.9l2.8-3.3c2.2,1.9,4.4,3.9,6.4,6l-3,3C232.4,109.7,230.4,107.7,228.2,105.9z M85.4,97.7c2.3-1.7,4.7-3.4,7.2-5
				l2.3,3.6c-2.4,1.5-4.7,3.1-6.9,4.8L85.4,97.7z M214.7,95.9l2.3-3.6c2.5,1.6,4.9,3.2,7.2,4.9l-2.6,3.5
				C219.4,99,217.1,97.4,214.7,95.9z M100.1,88.3c2.6-1.4,5.2-2.7,7.9-3.9l1.7,3.9c-2.5,1.1-5.1,2.4-7.6,3.7L100.1,88.3z M199.8,88
				l1.7-3.9c2.7,1.2,5.3,2.4,7.9,3.8l-2,3.8C204.9,90.3,202.4,89.1,199.8,88z M116.1,81.1c2.7-1,5.5-1.9,8.3-2.6l1.1,4.1
				c-2.7,0.7-5.4,1.6-8,2.5L116.1,81.1z M183.9,82.4l1.1-4.2c2.8,0.7,5.6,1.6,8.4,2.6l-1.4,4.1C189.3,84,186.6,83.2,183.9,82.4z
				 M133,76.5c2.8-0.6,5.8-1,8.6-1.3l0.5,4.3c-2.8,0.3-5.6,0.8-8.3,1.3L133,76.5z M167.3,79.4l0.5-4.3c2.9,0.3,5.8,0.7,8.7,1.3
				l-0.8,4.2C172.9,80.1,170.1,79.7,167.3,79.4z M150.3,74.5c2.9-0.1,5.8-0.1,8.8,0l-0.2,4.3c-2.8-0.1-5.6-0.1-8.4,0L150.3,74.5z"/>
		</g>
		<g>
			<path class="st6" d="M151,135c1.6-6.7,4-13,7-19c6.7-13.3,16.7-24.7,28.9-33.1c14.3-9.8,31.6-15.6,50.2-15.6
				c1.1,0,2.2,0.1,3.3,0.2c9.3,0.3,18.2,2.1,26.6,5.1c2.7,1,5.4,2.1,8,3.3c9.9,4.7,18.9,11.2,26.4,19.1c15.1,15.9,24.5,37.4,24.5,61
				v42.8V243v42.8c0,35.6-21,66.2-51.2,80.3v68.3H149.7V300.3c-0.8-4.7-1.3-9.5-1.3-14.4v-0.7V243v-0.7v-43.5V156
				C148.4,148.8,149.4,141.7,151,135z"/>
		</g>
		<g>
			<g>
				<path class="st4" d="M275,75.9c0.6-3,0.9-6,0.9-9.1c0-4.9-0.8-9.6-2.2-14c4.6-6.9,13.3-10.4,21.7-8c10.4,3,16.4,13.9,13.4,24.3
					L301.3,95C293.9,87.1,284.9,80.6,275,75.9z"/>
			</g>
			<g>
				<path class="st4" d="M267,72.6c-8.4-3-17.3-4.8-26.6-5.1c-1.8-18-10.9-33.9-24.4-44.6c4.4-1.4,9-2.1,13.9-2.1
					c20.5,0,37.9,13.5,43.8,32c-1.1,1.6-2,3.4-2.6,5.4L267,72.6z"/>
			</g>
			<g>
				<path class="st4" d="M275,75.9c-2.6-1.2-5.3-2.3-8-3.3l4.2-14.4c0.6-2,1.5-3.8,2.6-5.4c1.4,4.4,2.2,9.1,2.2,14
					C275.9,69.9,275.6,72.9,275,75.9z"/>
			</g>
			<g>
				<path class="st4" d="M158,116c6.7-13.3,16.7-24.7,28.9-33.1c6.3,16.9,22.3,29,41.2,29.7c-11,15-28.2,25.2-47.8,26.7
					C174.6,130,167.1,122,158,116z"/>
			</g>
			<g>
				<path class="st4" d="M240.4,67.5c-1.1,0-2.2-0.2-3.3-0.2c-18.7,0-36,5.8-50.2,15.6c-1.9-5-3-10.5-3-16.2
					c0-20.6,13.5-38,32.1-43.9C229.4,33.6,238.5,49.4,240.4,67.5z"/>
			</g>
			<g>
				<path class="st4" d="M186.9,82.9c14.3-9.8,31.6-15.6,50.2-15.6c1.1,0,2.2,0.1,3.3,0.2c0.2,2.2,0.3,4.4,0.3,6.6
					c0,14.4-4.7,27.7-12.6,38.6C209.1,111.9,193.2,99.8,186.9,82.9z"/>
			</g>
			<g>
				<path class="st4" d="M151,135c7.5,3,15.6,4.6,24.1,4.6c1.7,0,3.4-0.1,5.1-0.3c6.5,10.9,10.3,23.5,10.3,37.1
					c0,29.2-17.3,54.3-42.1,65.8V156C148.4,148.8,149.4,141.7,151,135z"/>
			</g>
			<g>
				<path class="st4" d="M180.2,139.4c-1.7,0.1-3.4,0.3-5.1,0.3c-8.5,0-16.7-1.7-24.1-4.6c1.6-6.7,4-13,7-19
					C167.1,122,174.6,130,180.2,139.4z"/>
			</g>
		</g>
		<g>
			<circle class="st6" cx="141.6" cy="207.1" r="24"/>
		</g>
		<g>
			<path class="st7" d="M249.3,268c-1.6,0.5-3.4,0.7-5,0c-5.8-2.2-8.3-9.8-3.9-14.9c4.7-5.5,11.8-8.8,19.6-8.5
				c8.8,0.4,16.4,5.3,20.4,12.5c1.4,2.4,1.4,5.1,0.4,7.3c-1.7,4.1-6.7,5.6-10.8,4.1c-2.6-1-6.3-1.9-10.6-2
				C255.2,266.5,251.8,267.3,249.3,268z"/>
		</g>
		<g>
			<path class="st7" d="M183.4,356.6c14.8,28.3,44.4,47.6,78.5,47.6c4.3,0,8.4-0.3,12.5-0.9v-37c-11.4,5.3-24.1,8.3-37.5,8.3
				C216.8,374.6,198.3,367.9,183.4,356.6z"/>
		</g>
		<g>
			<ellipse class="st7" cx="291.7" cy="157.3" rx="4" ry="7.5"/>
		</g>
		<g>
			<ellipse class="st7" cx="238.1" cy="152.1" rx="4" ry="7.5"/>
		</g>
		<g>
			<path class="st7" d="M266.8,214.3c4.1,0,10.1-1.2,14.1-7.4c6.6-10.1-10.5-31.9-11.3-32.9c-0.4-0.5-1-0.5-1.5-0.2
				c-0.5,0.4-0.5,1-0.2,1.5c0.2,0.2,16.9,21.5,11.2,30.3c-5.7,8.8-15.8,6.1-16.2,6c-0.5-0.2-1.2,0.2-1.3,0.7
				c-0.2,0.6,0.2,1.2,0.7,1.3C262.4,213.8,264.2,214.3,266.8,214.3z"/>
		</g>
		<g>
			<path class="st6" d="M213.5,518.6L213.5,518.6c33.7,0,61.1-27.4,61.1-61.1v-33.9c0-6.5-5.2-11.7-11.7-11.7H161.1
				c-6.5,0-11.7,5.2-11.7,11.7v31C149.4,489.9,178.1,518.6,213.5,518.6z"/>
		</g>
		<g>
			<path class="st7" d="M281.8,126.6c0.6,0,1.1-0.5,1.1-1.1c0-3.9,3.2-7.1,7.1-7.1c3.9,0,7.1,3.2,7.1,7.1c0,0.6,0.5,1.1,1.1,1.1
				c0.6,0,1.1-0.5,1.1-1.1c0-5.1-4.2-9.3-9.3-9.3c-5.1,0-9.3,4.2-9.3,9.3C280.7,126.1,281.2,126.6,281.8,126.6z"/>
		</g>
		<g>
			<path class="st7" d="M228.9,126.6c0.6,0,1.1-0.5,1.1-1.1c0-3.9,3.2-7.1,7.1-7.1s7.1,3.2,7.1,7.1c0,0.6,0.5,1.1,1.1,1.1
				c0.6,0,1.1-0.5,1.1-1.1c0-5.1-4.2-9.3-9.3-9.3c-5.1,0-9.3,4.2-9.3,9.3C227.8,126.1,228.3,126.6,228.9,126.6z"/>
		</g>
	</g>
</g>
</svg>
