<?xml version="1.0" encoding="utf-8"?>
<!-- Generator: Adobe Illustrator 26.0.3, SVG Export Plug-In . SVG Version: 6.00 Build 0)  -->
<svg version="1.1" id="Layer_1" xmlns="http://www.w3.org/2000/svg" xmlns:xlink="http://www.w3.org/1999/xlink" x="0px" y="0px"
	 viewBox="0 0 432 432" style="enable-background:new 0 0 432 432;" xml:space="preserve">
<style type="text/css">
	.st0{clip-path:url(#SVGID_00000068647106251368648170000005756736319615232182_);}
	.st1{fill:#C25451;}
	.st2{fill:#E1D7C8;}
</style>
<g>
	<defs>
		<path id="SVGID_1_" d="M216,432C112.6,432,23.4,358.4,3.9,257.1C1.3,243.7,0,229.9,0,216c0-1.3,0-2.6,0-3.8
			C0.2,201,1.3,189.8,3.2,179c9.3-54,38.6-102.1,82.6-135.4C123.5,15.1,168.5,0,216,0c59.9,0,115.6,24,156.8,67.5
			c13.4,14.1,24.8,30,33.9,47.1c16.5,31,25.3,66,25.3,101.4c0,3.4-0.1,6.5-0.2,9.4c-1.1,25.3-6.5,50-16.3,73.4
			c-19.7,47.5-55.9,86.5-101.8,109.8c-19,9.6-39.2,16.4-60.2,20.1C241.3,430.9,228.6,432,216,432z"/>
	</defs>
	<clipPath id="SVGID_00000161627414699564516010000003356164922991628194_">
		<use xlink:href="#SVGID_1_"  style="overflow:visible;"/>
	</clipPath>
	<g style="clip-path:url(#SVGID_00000161627414699564516010000003356164922991628194_);">
		<g>
			<path class="st1" d="M216,432C112.6,432,23.4,358.4,3.9,257.1C1.3,243.7,0,229.9,0,216c0-1.3,0-2.6,0-3.8
				C0.2,201,1.3,189.8,3.2,179c9.3-54,38.6-102.1,82.6-135.4C123.5,15.1,168.5,0,216,0c59.9,0,115.6,24,156.8,67.5
				c13.4,14.1,24.8,30,33.9,47.1c16.5,31,25.3,66,25.3,101.4c0,3.4-0.1,6.5-0.2,9.4c-1.1,25.3-6.5,50-16.3,73.4
				c-19.7,47.5-55.9,86.5-101.8,109.8c-19,9.6-39.2,16.4-60.2,20.1C241.3,430.9,228.6,432,216,432z M216,38.7
				c-39,0-75.9,12.4-106.9,35.8C73,101.8,48.9,141.3,41.3,185.6c-1.6,8.9-2.4,18-2.6,27.3c0,1.1,0,2.1,0,3.1
				c0,11.4,1.1,22.8,3.2,33.8c16,83.2,89.3,143.6,174.1,143.6c10.4,0,20.8-0.9,30.8-2.7c17.2-3,33.8-8.6,49.4-16.5
				c37.7-19.2,67.4-51.2,83.7-90.2c8-19.2,12.4-39.4,13.3-60.2c0.1-2.4,0.2-4.9,0.2-7.7c0-29.1-7.2-57.8-20.7-83.2c0,0,0,0,0,0
				c-7.5-14.1-16.8-27.1-27.8-38.7C310.9,58.3,265.2,38.7,216,38.7z"/>
		</g>
		<g>
			<g>
				<circle class="st2" cx="216" cy="216" r="196.7"/>
			</g>
			<g>
				<g>
					<path class="st1" d="M126.8,324.5c-4.9,0-9.9-1.9-13.7-5.7c-7.5-7.6-7.5-19.8,0-27.3l178.4-178.4c7.6-7.5,19.8-7.5,27.3,0
						c7.5,7.6,7.5,19.8,0,27.3L140.5,318.9C136.7,322.6,131.7,324.5,126.8,324.5z"/>
				</g>
				<g>
					<path class="st1" d="M305.2,324.5c-4.9,0-9.9-1.9-13.7-5.7L113.1,140.5c-7.5-7.6-7.5-19.8,0-27.3c7.6-7.5,19.8-7.5,27.3,0
						l178.4,178.4c7.5,7.6,7.5,19.8,0,27.3C315.1,322.6,310.1,324.5,305.2,324.5z"/>
				</g>
			</g>
		</g>
	</g>
</g>
</svg>
