<?xml version="1.0" encoding="utf-8"?>
<!-- Generator: Adobe Illustrator 26.0.3, SVG Export Plug-In . SVG Version: 6.00 Build 0)  -->
<svg version="1.1" id="Layer_1" xmlns="http://www.w3.org/2000/svg" xmlns:xlink="http://www.w3.org/1999/xlink" x="0px" y="0px"
	 viewBox="0 0 432 432" style="enable-background:new 0 0 432 432;" xml:space="preserve">
<style type="text/css">
	.st0{clip-path:url(#SVGID_00000070083059538122766090000010344810237233944988_);}
	.st1{fill:#FFF4EB;}
	.st2{clip-path:url(#SVGID_00000065039527074524869150000003102385453690947476_);}
	.st3{fill:#E1D7C8;}
	.st4{opacity:0.74;}
	.st5{fill:#7F6D5D;}
	.st6{fill:#695948;}
</style>
<g>
	<defs>
		<path id="SVGID_1_" d="M216,432C112.6,432,23.4,358.4,3.9,257.1C1.3,243.7,0,229.9,0,216c0-1.3,0-2.6,0-3.9
			C0.2,201,1.3,189.8,3.2,179c9.3-54,38.7-102.1,82.6-135.4C123.5,15.1,168.5,0,216,0c59.9,0,115.6,24,156.8,67.5
			c13.4,14.1,24.8,30,33.9,47.1l0,0c16.5,31,25.3,66.1,25.3,101.4c0,3.4-0.1,6.4-0.2,9.4c-1.1,25.3-6.5,50-16.3,73.4
			c-19.7,47.5-55.9,86.5-101.8,109.8c-19,9.6-39.2,16.4-60.2,20.1C241.3,430.9,228.6,432,216,432z"/>
	</defs>
	<clipPath id="SVGID_00000026861894888097717560000000415891094798964895_">
		<use xlink:href="#SVGID_1_"  style="overflow:visible;"/>
	</clipPath>
	<g style="clip-path:url(#SVGID_00000026861894888097717560000000415891094798964895_);">
		<g>
			<path class="st1" d="M216,432C112.6,432,23.4,358.4,3.9,257.1C1.3,243.7,0,229.9,0,216c0-1.3,0-2.6,0-3.9
				C0.2,201,1.3,189.8,3.2,179c9.3-54,38.7-102.1,82.6-135.4C123.5,15.1,168.5,0,216,0c59.9,0,115.6,24,156.8,67.5
				c13.4,14.1,24.8,30,33.9,47.1l0,0c16.5,31,25.3,66.1,25.3,101.4c0,3.4-0.1,6.4-0.2,9.4c-1.1,25.3-6.5,50-16.3,73.4
				c-19.7,47.5-55.9,86.5-101.8,109.8c-19,9.6-39.2,16.4-60.2,20.1C241.3,430.9,228.6,432,216,432z M216,38.7
				c-39,0-75.9,12.4-106.8,35.8C73,101.8,48.9,141.3,41.3,185.6c-1.6,8.9-2.4,18-2.6,27.3c0,1.1,0,2.1,0,3.1
				c0,11.4,1.1,22.8,3.2,33.8c16,83.2,89.3,143.6,174.1,143.6c10.4,0,20.8-0.9,30.8-2.7c17.2-3,33.8-8.6,49.4-16.5
				c37.7-19.2,67.4-51.2,83.7-90.2c8-19.2,12.4-39.4,13.3-60.2c0.1-2.5,0.2-5,0.2-7.7c0-29.1-7.2-57.8-20.7-83.2l0,0
				c-7.5-14.1-16.8-27.1-27.8-38.7C310.9,58.3,265.2,38.7,216,38.7z"/>
		</g>
		<g>
			<g>
				<defs>
					<circle id="SVGID_00000098939383356629479740000016985039702790973101_" cx="216" cy="216" r="196.7"/>
				</defs>
				<use xlink:href="#SVGID_00000098939383356629479740000016985039702790973101_"  style="overflow:visible;fill:#E1D7C8;"/>
				<clipPath id="SVGID_00000183931313765774400760000001649592194766620805_">
					<use xlink:href="#SVGID_00000098939383356629479740000016985039702790973101_"  style="overflow:visible;"/>
				</clipPath>
				<g style="clip-path:url(#SVGID_00000183931313765774400760000001649592194766620805_);">
					<circle class="st3" cx="216" cy="216" r="196.7"/>
				</g>
				<g style="clip-path:url(#SVGID_00000183931313765774400760000001649592194766620805_);">
					<path class="st3" d="M216.9,344.1l-18.6-240.1l90.6-7c3.4-0.3,6.3,2.6,6,6l-5.1,0.5l-12.4,222c-0.6,8.1-7.1,14.5-15.2,15.1
						L216.9,344.1z"/>
				</g>
				<g style="clip-path:url(#SVGID_00000183931313765774400760000001649592194766620805_);">
					<path class="st3" d="M234.2,342.7l-18.6-240.1l-90.6,7c-3.4,0.3-5.8,3.5-5,6.9l5.1-0.3l46.5,217.4c1.9,7.9,9.2,13.3,17.3,12.6
						L234.2,342.7z"/>
				</g>
				<g style="clip-path:url(#SVGID_00000183931313765774400760000001649592194766620805_);">
					<path class="st3" d="M133.5,117.3l43.7,204.1c1.8,7.4,8.7,12.4,16.3,11.9l16.5-1.3c4.1-0.3,7.1-4.2,6.2-8.3l-41.4-204.9
						c-0.5-2.7-3-4.5-5.7-4.3L133.5,117.3z"/>
				</g>
				<g style="clip-path:url(#SVGID_00000183931313765774400760000001649592194766620805_);">
					<path class="st3" d="M284.7,274.7c-17.6,3-37.3,5.4-58.8,6.6c-24.7,1.4-47.4,1-67.4-0.4c-8.2-35.4-16.4-70.8-24.6-106.2
						c23.6-4.4,50.5-8.1,80.3-9.9c28.2-1.7,54-1.4,77,0C289,201.4,286.8,238,284.7,274.7z"/>
				</g>
				<g style="clip-path:url(#SVGID_00000183931313765774400760000001649592194766620805_);">
					<path class="st3" d="M215.2,187.8l11.4,18c0.5,0.8,1.4,1.3,2.4,1.4l21.3,0.8c2.5,0.1,3.7,3,2.2,4.9l-13.6,16.4
						c-0.6,0.8-0.8,1.8-0.6,2.7l5.8,20.5c0.7,2.4-1.7,4.5-3.9,3.6l-19.8-7.9c-0.9-0.4-1.9-0.3-2.7,0.3l-17.7,11.9
						c-2,1.4-4.8-0.2-4.6-2.7l1.4-21.3c0.1-1-0.4-1.9-1.1-2.5l-16.8-13.2c-1.9-1.5-1.3-4.6,1.1-5.2l20.7-5.3c0.9-0.2,1.7-0.9,2-1.8
						l7.4-20C210.7,186.1,213.8,185.8,215.2,187.8z"/>
				</g>
			</g>
			<g>
				<g class="st4">
					<g>
						<path class="st5" d="M322.7,331.5C322.7,331.5,322.7,331.5,322.7,331.5l-38.7-0.1l0.1-23.2l27.1,0.1l0.1-27.1l23.2,0.1
							l-0.1,38.7C334.3,326.3,329.1,331.5,322.7,331.5z"/>
					</g>
					<g>

							<rect x="203.9" y="296.7" transform="matrix(2.700161e-03 -1 1 2.700161e-03 -104.6562 534.1823)" class="st5" width="23.2" height="45.7"/>
					</g>
					<g>
						<path class="st5" d="M146.9,331l-38.7-0.1c-6.4,0-11.6-5.2-11.6-11.6l0.1-38.7l23.2,0.1l-0.1,27.1l27.1,0.1L146.9,331z"/>
					</g>
					<g>

							<rect x="85.7" y="200.5" transform="matrix(2.604158e-03 -1 1 2.604158e-03 -103.7711 320.1169)" class="st5" width="45.7" height="23.2"/>
					</g>
					<g>
						<path class="st5" d="M120.4,143.6l-23.2-0.1l0.1-38.7c0-6.4,5.2-11.6,11.6-11.6c0,0,0,0,0,0l38.7,0.1l-0.1,23.2l-27.1-0.1
							L120.4,143.6z"/>
					</g>
					<g>

							<rect x="204.5" y="82.3" transform="matrix(2.755266e-03 -1 1 2.755266e-03 110.2912 320.9668)" class="st5" width="23.2" height="45.7"/>
					</g>
					<g>
						<path class="st5" d="M334.8,144.2l-23.2-0.1l0.1-27.1l-27.1-0.1l0.1-23.2l38.7,0.1c3.1,0,6,1.2,8.2,3.4
							c2.2,2.2,3.4,5.1,3.4,8.2L334.8,144.2z"/>
					</g>
					<g>

							<rect x="300.1" y="201.1" transform="matrix(2.821169e-03 -1 1 2.821169e-03 109.3893 535.03)" class="st5" width="45.7" height="23.2"/>
					</g>
				</g>
				<g>
					<g>
						<path class="st6" d="M184.1,199.1l-0.5,30.8c0,0.7-0.6,1.3-1.4,1.3l-54-0.8c-0.7,0-1.4,0.6-1.4,1.3l-0.4,26.4
							c0,1.1-1.3,1.7-2.2,1c-20-15.3-39.7-30.2-59.6-45.4c-0.7-0.6-0.7-1.6,0-2.2c20.3-14.5,40.4-28.8,60.9-43.5
							c0.9-0.6,2.2,0,2.1,1.1l-0.4,26.3c0,0.7,0.6,1.4,1.3,1.4l54.1,0.8C183.5,197.8,184.1,198.4,184.1,199.1z"/>
					</g>
					<g>
						<path class="st6" d="M305.2,198.4l0.4-26.4c0-1.1,1.3-1.7,2.2-1c20,15.2,39.6,30.2,59.5,45.4c0.7,0.6,0.7,1.6,0,2.2
							c-20.3,14.5-40.4,28.8-60.9,43.4c-0.9,0.6-2.2,0-2.1-1.1l0.4-26.3c0-0.7-0.6-1.4-1.3-1.4l-54.3-0.8c-0.7,0-1.3-0.6-1.3-1.3
							c0-0.3,0-0.6,0-0.9c0.1-9.7,0.3-19.4,0.4-29.1c0-1.9,0.7-2.2,2.4-2.2c17.2,0.3,34.5,0.6,51.7,0.8c0.5,0,1,0,1.5,0
							C304.6,199.7,305.2,199.1,305.2,198.4z"/>
					</g>
					<g>
						<path class="st6" d="M212.5,366.4c-14.5-20.3-28.8-40.4-43.4-60.8c-0.6-0.9,0-2.2,1.1-2.1l26.2,0.4c0.7,0,1.4-0.6,1.4-1.3
							l0.8-54.3c0-0.7,0.6-1.3,1.3-1.3c0.3,0,0.6,0,0.9,0c9.7,0.1,19.4,0.3,29.1,0.4c1.9,0,2.2,0.7,2.2,2.4
							c-0.3,17.2-0.6,34.5-0.8,51.7c0,0.5,0,0.9,0,1.4c0,0.7,0.6,1.4,1.3,1.4l26.5,0.4c1.1,0,1.7,1.3,1.1,2.2
							c-15.3,20.1-30.2,39.7-45.4,59.7C214.2,367.1,213.1,367.1,212.5,366.4z"/>
					</g>
					<g>
						<path class="st6" d="M261.8,126.8l-26.3-0.4c-0.7,0-1.4,0.6-1.4,1.3l-0.8,54.1c0,0.7-0.6,1.3-1.4,1.3l-30.7-0.5
							c-0.7,0-1.3-0.6-1.3-1.4c0-0.5,0-1,0-1.5c0.3-17.1,0.5-34.2,0.8-51.3c0-2.2-0.5-2.8-2.7-2.8c-8.3,0-16.7-0.2-25-0.3
							c0,0,0,0,0,0c-1.1,0-1.7-1.3-1-2.2c14.5-19,28.7-37.7,43.1-56.6c1.7-2.2,5-2.1,6.6,0.1c13.8,19.3,27.4,38.4,41.3,57.9
							C263.5,125.5,262.9,126.8,261.8,126.8z"/>
					</g>
				</g>
			</g>
		</g>
	</g>
</g>
</svg>
