<?xml version="1.0" encoding="utf-8"?>
<!-- Generator: Adobe Illustrator 26.0.3, SVG Export Plug-In . SVG Version: 6.00 Build 0)  -->
<svg version="1.1" id="Layer_1" xmlns="http://www.w3.org/2000/svg" xmlns:xlink="http://www.w3.org/1999/xlink" x="0px" y="0px"
	 viewBox="0 0 432 432" style="enable-background:new 0 0 432 432;" xml:space="preserve">
<style type="text/css">
	.st0{clip-path:url(#SVGID_00000104666999650565692100000008660219191224788612_);}
	.st1{fill:#C25451;}
	.st2{fill:#B69B78;}
	.st3{fill:#BB9F83;}
	.st4{fill:#E1D7C8;}
	.st5{fill:#695948;}
	.st6{fill:none;}
	.st7{fill:#E08282;}
</style>
<g>
	<g>
		<defs>
			<circle id="SVGID_1_" cx="216" cy="216" r="216"/>
		</defs>
		<clipPath id="SVGID_00000145039136196443563460000004558030162137864866_">
			<use xlink:href="#SVGID_1_"  style="overflow:visible;"/>
		</clipPath>
		<g style="clip-path:url(#SVGID_00000145039136196443563460000004558030162137864866_);">
			<g>
				<circle class="st1" cx="216" cy="216" r="216"/>
			</g>
			<g>
				<path class="st2" d="M49.7,512.9c0-111.6,90.4-202,202-202s202,90.4,202,202"/>
			</g>
			<g>
				<path class="st3" d="M144,510.7H69.5c0-89,57.6-164.4,137.4-191.4l34.8,8.7C241.7,328,148.5,415.3,144,510.7z"/>
			</g>
			<g>
				<path class="st4" d="M188.9,153.8v39.7v40.3v0.6v39.1v0.6c0,4.5,0.5,9,1.2,13.3V412h115.8v-63.3c28-13.1,47.5-41.4,47.5-74.4
					v-39.7l0-41v-39.7c0-22-8.7-41.9-22.7-56.6c-6.9-7.3-15.2-13.3-24.4-17.7c-2.4-1.2-4.9-2.2-7.4-3.1c-7.8-2.8-16.1-4.4-24.7-4.7
					c-1-0.1-2-0.2-3-0.2c-17.3,0-33.4,5.4-46.6,14.5c-11.3,7.7-20.5,18.3-26.7,30.6c-2.8,5.5-5,11.4-6.5,17.6S189,147,188.9,153.8z"
					/>
			</g>
			<g>
				<path class="st2" d="M189,153.8v80c23-10.7,39-33.9,39-61c0-12.6-3.5-24.3-9.5-34.4c18.2-1.4,34.1-10.9,44.3-24.8
					c7.3-10.1,11.7-22.4,11.7-35.8c0-2-0.1-4.1-0.3-6.1c8.7,0.3,16.9,1.9,24.7,4.7c2.5,0.9,5,2,7.4,3.1c9.2,4.4,17.5,10.4,24.4,17.7
					l6.9-24c2.8-9.6-2.7-19.7-12.4-22.5c-7.8-2.3-15.8,1-20.1,7.4c-5.5-17.2-21.6-29.7-40.6-29.7c-4.5,0-8.8,0.7-12.9,2
					c-17.3,5.5-29.8,21.6-29.8,40.7c0,5.3,1,10.3,2.8,15c-11.3,7.7-20.5,18.3-26.7,30.6c-2.8,5.5-5,11.4-6.5,17.6S189,147,189,153.8
					z"/>
			</g>
			<g>
				<circle class="st4" cx="183.3" cy="199.8" r="22.1"/>
			</g>
			<g>
				<path class="st5" d="M304.7,257.1c4.3,0.1,7.8,1,10.4,2c4,1.5,8.9,0,10.6-4c0.9-2.2,0.9-4.8-0.4-7.2c-3.9-7.1-11.3-11.9-20-12.3
					c-7.6-0.3-14.6,3-19.2,8.4c-4.3,5-1.8,12.4,3.9,14.6c1.6,0.6,3.3,0.5,4.9,0C297.3,257.8,300.7,257.1,304.7,257.1z"/>
			</g>
			<g>
				<path class="st5" d="M271.1,356.4c12.4,0,24.1-2.8,34.7-7.7V383c-3.8,0.5-7.7,0.8-11.6,0.8c-31.7,0-59.1-18-72.8-44.2
					C235.2,350.1,252.4,356.3,271.1,356.4z"/>
			</g>
			<g>
				<path class="st5" d="M303.1,207.6c-0.7-0.2-1.1-0.9-0.9-1.6s0.9-1.1,1.6-0.9c0.4,0.1,9.5,2.5,14.7-5.4c4.3-6.6-6-22.2-10.3-27.7
					c-0.5-0.6-0.4-1.4,0.2-1.9c0.6-0.5,1.4-0.4,1.9,0.2c0.7,0.8,16.7,21.2,10.5,30.8c-3.8,5.9-9.5,7-13.4,7
					C305,208.1,303.2,207.7,303.1,207.6z"/>
			</g>
			<g>
				<path class="st4" d="M190.5,427.5V399c0-5.9,4.8-10.7,10.7-10.7h93.7c5.9,0,10.7,4.8,10.7,10.7v31.3c0,31-25.1,56.2-56.2,56.2
					l0,0C216.8,486.5,190.4,460,190.5,427.5z"/>
			</g>
			<g>
				<ellipse class="st5" cx="331.8" cy="158" rx="3.8" ry="7.1"/>
			</g>
			<g>
				<ellipse class="st5" cx="281" cy="153.1" rx="3.8" ry="7.1"/>
			</g>
			<g>
				<path class="st5" d="M344.3,139.7c-0.7-0.2-1.1-1-0.8-1.7c0.7-1.9-1.5-4.6-4.7-5.8c-3.3-1.2-6.7-0.7-7.4,1.1
					c-0.2,0.7-1,1.1-1.7,0.8c-0.7-0.2-1.1-1-0.8-1.7c1.3-3.3,6-4.4,10.8-2.6c4.8,1.8,7.5,5.9,6.2,9.2c-0.2,0.6-0.7,0.9-1.2,0.9
					C344.6,139.9,344.4,139.8,344.3,139.7z"/>
			</g>
			<g>
				<path class="st5" d="M268.4,137.2c-0.4-1.5-0.1-3,0.7-4.4c1.2-2.1,3.6-3.8,6.4-4.5c2.2-0.7,4.6-0.6,6.5,0.1c2.1,0.7,3.5,2.2,4,4
					c0.2,0.7-0.2,1.4-0.9,1.6c-0.7,0.2-1.4-0.2-1.6-0.9c-0.3-1-1.1-1.7-2.4-2.2c-1.4-0.5-3.1-0.6-4.9-0.1c-2.2,0.6-3.9,1.8-4.8,3.3
					c-0.3,0.5-0.7,1.4-0.4,2.3c0.2,0.7-0.2,1.4-0.9,1.6c-0.2,0-0.3,0-0.4,0C269.1,138,268.6,137.6,268.4,137.2z"/>
			</g>
			<g>
				<circle class="st6" cx="224.1" cy="207.9" r="216"/>
			</g>
			<g>
				<path class="st7" d="M121.5,238H90.7c0,0-36.4-77.1-36.4-112.8c0-19.7,13.7-46.7,49-46.7c36.8,0,55.4,20.9,55.4,50.5
					C158.7,154.4,121.5,238,121.5,238z"/>
				<path class="st7" d="M90.2,238.2c-0.4-0.8-36.5-77.6-36.5-113c0-19,13.2-47.2,49.5-47.2c35,0,55.9,19.1,55.9,51
					c0,25.3-36.8,108.4-37.2,109.2l-0.1,0.3H90.4L90.2,238.2z M158.2,129c0-31.3-20.5-50-54.9-50c-35.6,0-48.5,27.6-48.5,46.2
					c0,34.1,33.9,107.1,36.3,112.3h30.1C123.6,232,158.2,153.3,158.2,129z"/>
			</g>
			<g>
				<path class="st7" d="M134.5,285.2c0,16.7-10.8,29.4-27.9,29.4c-22.5,0-33.8-16.4-33.8-31.7c0-18.3,18.8-25.1,33.1-25.1h2.3
					C120.7,258.8,134.5,266.7,134.5,285.2z"/>
				<path class="st7" d="M72.3,282.9c0-17.6,17.4-25.6,33.6-25.6h2.3l0,0c12.4,1,26.8,8.8,26.8,28c0,17.5-11.7,29.8-28.4,29.8
					C84.1,315.1,72.3,299,72.3,282.9z M108.2,258.4h-2.4c-15.7,0-32.6,7.7-32.6,24.6c0,15.5,11.4,31.2,33.3,31.2
					c16.2,0,27.5-11.9,27.5-28.9C134,266.8,120.1,259.2,108.2,258.4L108.2,258.4z"/>
			</g>
			<g>
				<circle class="st6" cx="219.9" cy="216" r="216"/>
			</g>
		</g>
	</g>
</g>
</svg>
