<?xml version="1.0" encoding="utf-8"?>
<!-- Generator: Adobe Illustrator 26.0.3, SVG Export Plug-In . SVG Version: 6.00 Build 0)  -->
<svg version="1.1" id="Layer_1" xmlns="http://www.w3.org/2000/svg" xmlns:xlink="http://www.w3.org/1999/xlink" x="0px" y="0px"
	 viewBox="0 0 432 432" style="enable-background:new 0 0 432 432;" xml:space="preserve">
<style type="text/css">
	.st0{clip-path:url(#SVGID_00000137091036898907437040000009247780302511632571_);}
	.st1{fill:#C25451;}
	.st2{fill:#B69B78;}
	.st3{fill:#BB9F83;}
	.st4{fill:#E1D7C8;}
	.st5{fill:#695948;}
	.st6{fill:none;}
	.st7{fill:#E08282;}
</style>
<g>
	<defs>
		<circle id="SVGID_1_" cx="216" cy="216" r="216"/>
	</defs>
	<clipPath id="SVGID_00000115497658845927331970000015302834730680967306_">
		<use xlink:href="#SVGID_1_"  style="overflow:visible;"/>
	</clipPath>
	<g style="clip-path:url(#SVGID_00000115497658845927331970000015302834730680967306_);">
		<g>
			<circle class="st1" cx="216" cy="216" r="216"/>
		</g>
		<g>
			<path class="st2" d="M-21.7,512.9c0-111.6,90.4-202,202-202s202,90.4,202,202"/>
		</g>
		<g>
			<path class="st3" d="M190.3,328l34.8-8.7c79.8,27,137.4,102.4,137.4,191.4h-74.5C283.5,415.3,190.3,328,190.3,328z"/>
		</g>
		<g>
			<path class="st4" d="M240.6,134.3c-1.5-6.2-3.7-12.1-6.5-17.6c-6.2-12.3-15.4-22.9-26.7-30.6c-13.2-9.1-29.3-14.5-46.6-14.5
				c-1,0-2,0.1-3,0.2c-8.6,0.3-16.9,1.9-24.7,4.7c-2.5,0.9-5,1.9-7.4,3.1c-9.2,4.4-17.5,10.4-24.4,17.7
				c-14,14.7-22.7,34.6-22.7,56.6v39.7v41v39.7c0,33,19.5,61.3,47.5,74.4v63.3h115.8V287.4c0.7-4.3,1.2-8.8,1.2-13.3v-0.6v-39.1
				v-0.6v-40.3v-39.7C243,147,242.1,140.5,240.6,134.3z"/>
		</g>
		<g>
			<path class="st2" d="M240.6,134.3c-1.5-6.2-3.7-12.1-6.5-17.6c-6.2-12.3-15.4-22.9-26.7-30.6c1.8-4.7,2.8-9.7,2.8-15
				c0-19.1-12.5-35.2-29.8-40.7c-4.1-1.3-8.4-2-12.9-2c-19,0-35.1,12.5-40.6,29.7c-4.3-6.4-12.3-9.7-20.1-7.4
				c-9.7,2.8-15.2,12.9-12.4,22.5l6.9,24c6.9-7.3,15.2-13.3,24.4-17.7c2.4-1.1,4.9-2.2,7.4-3.1c7.8-2.8,16-4.4,24.7-4.7
				c-0.2,2-0.3,4.1-0.3,6.1c0,13.4,4.4,25.7,11.7,35.8c10.2,13.9,26.1,23.4,44.3,24.8c-6,10.1-9.5,21.8-9.5,34.4
				c0,27.1,16,50.3,39,61v-80C243,147,242.1,140.5,240.6,134.3z"/>
		</g>
		<g>
			<circle class="st4" cx="248.7" cy="199.8" r="22.1"/>
		</g>
		<g>
			<path class="st5" d="M137.1,258.6c1.6,0.5,3.3,0.6,4.9,0c5.7-2.2,8.2-9.6,3.9-14.6c-4.6-5.4-11.6-8.7-19.2-8.4
				c-8.7,0.4-16.1,5.2-20,12.3c-1.3,2.4-1.3,5-0.4,7.2c1.7,4,6.6,5.5,10.6,4c2.6-1,6.1-1.9,10.4-2
				C131.3,257.1,134.7,257.8,137.1,258.6z"/>
		</g>
		<g>
			<path class="st5" d="M210.6,339.6c-13.7,26.2-41.1,44.2-72.8,44.2c-3.9,0-7.8-0.3-11.6-0.8v-34.3c10.6,4.9,22.3,7.7,34.7,7.7
				C179.6,356.3,196.8,350.1,210.6,339.6z"/>
		</g>
		<g>
			<path class="st5" d="M124.6,208.1c-3.9,0-9.6-1.1-13.4-7c-6.2-9.6,9.8-30,10.5-30.8c0.5-0.6,1.3-0.7,1.9-0.2
				c0.6,0.5,0.7,1.3,0.2,1.9c-4.3,5.5-14.6,21.1-10.3,27.7c5.2,7.9,14.3,5.5,14.7,5.4c0.7-0.2,1.4,0.2,1.6,0.9
				c0.2,0.7-0.2,1.4-0.9,1.6C128.8,207.7,127,208.1,124.6,208.1z"/>
		</g>
		<g>
			<path class="st4" d="M182.6,486.5L182.6,486.5c-31.1,0-56.2-25.2-56.2-56.2V399c0-5.9,4.8-10.7,10.7-10.7h93.7
				c5.9,0,10.7,4.8,10.7,10.7v28.5C241.6,460,215.2,486.5,182.6,486.5z"/>
		</g>
		<g>
			<ellipse class="st5" cx="100.2" cy="158" rx="3.8" ry="7.1"/>
		</g>
		<g>
			<ellipse class="st5" cx="151" cy="153.1" rx="3.8" ry="7.1"/>
		</g>
		<g>
			<path class="st5" d="M87.3,139.9c-0.5,0-1-0.3-1.2-0.9c-1.3-3.3,1.4-7.4,6.2-9.2c4.8-1.8,9.5-0.7,10.8,2.6
				c0.3,0.7-0.1,1.5-0.8,1.7c-0.7,0.3-1.5-0.1-1.7-0.8c-0.7-1.8-4.1-2.3-7.4-1.1c-3.2,1.2-5.4,3.9-4.7,5.8c0.3,0.7-0.1,1.5-0.8,1.7
				C87.6,139.8,87.4,139.9,87.3,139.9z"/>
		</g>
		<g>
			<path class="st5" d="M162.3,138c-0.1,0-0.2,0-0.4,0c-0.7-0.2-1.1-0.9-0.9-1.6c0.3-0.9-0.1-1.8-0.4-2.3c-0.9-1.5-2.6-2.7-4.8-3.3
				c-1.8-0.5-3.5-0.4-4.9,0.1c-1.3,0.5-2.1,1.2-2.4,2.2c-0.2,0.7-0.9,1.1-1.6,0.9c-0.7-0.2-1.1-0.9-0.9-1.6c0.5-1.8,1.9-3.3,4-4
				c1.9-0.7,4.3-0.8,6.5-0.1c2.8,0.7,5.2,2.4,6.4,4.5c0.8,1.4,1.1,2.9,0.7,4.4C163.4,137.6,162.9,138,162.3,138z"/>
		</g>
		<g>
			<circle class="st6" cx="207.9" cy="207.9" r="216"/>
		</g>
		<g>
			<path class="st7" d="M273.3,129c0-29.6,18.6-50.5,55.4-50.5c35.3,0,49,27,49,46.7c0,35.7-36.4,112.8-36.4,112.8h-30.8
				C310.5,238,273.3,154.4,273.3,129z"/>
			<path class="st7" d="M341.6,238.5h-31.4l-0.1-0.3c-0.4-0.8-37.2-83.9-37.2-109.2c0-31.9,20.9-51,55.9-51
				c36.3,0,49.5,28.2,49.5,47.2c0,35.4-36.1,112.2-36.5,113L341.6,238.5z M310.8,237.5h30.1c2.4-5.2,36.3-78.2,36.3-112.3
				c0-18.6-12.9-46.2-48.5-46.2c-34.4,0-54.9,18.7-54.9,50C273.8,153.3,308.4,232,310.8,237.5z"/>
		</g>
		<g>
			<path class="st7" d="M323.8,257.8h2.3c14.3,0,33.1,6.8,33.1,25.1c0,15.3-11.3,31.7-33.8,31.7c-17.1,0-27.9-12.7-27.9-29.4
				C297.5,266.7,311.3,258.8,323.8,257.8z"/>
			<path class="st7" d="M325.4,315.1c-16.7,0-28.4-12.3-28.4-29.8c0-19.2,14.4-27,26.8-28l0,0h2.3c16.2,0,33.6,8,33.6,25.6
				C359.7,299,347.9,315.1,325.4,315.1z M323.8,258.3c-11.9,0.9-25.8,8.5-25.8,27c0,17,11.3,28.9,27.5,28.9
				c21.9,0,33.3-15.7,33.3-31.2c0-16.9-16.9-24.6-32.6-24.6H323.8z"/>
		</g>
		<g>
			<circle class="st6" cx="212.1" cy="216" r="216"/>
		</g>
	</g>
</g>
</svg>
