<?xml version="1.0" encoding="utf-8"?>
<!-- Generator: Adobe Illustrator 26.0.3, SVG Export Plug-In . SVG Version: 6.00 Build 0)  -->
<svg version="1.1" id="Layer_1" xmlns="http://www.w3.org/2000/svg" xmlns:xlink="http://www.w3.org/1999/xlink" x="0px" y="0px"
	 viewBox="0 0 427.8 427.8" style="enable-background:new 0 0 427.8 427.8;" xml:space="preserve">
<style type="text/css">
	.st0{clip-path:url(#SVGID_00000071540962248519409100000009320689677880761270_);}
	.st1{fill:none;}
	.st2{fill:url(#SVGID_00000134251511794129528460000010880724805210837408_);}
	.st3{fill:#B69B78;}
	.st4{fill:#BB9F83;}
	.st5{fill:#E1D7C8;}
	.st6{fill:#695948;}
	
		.st7{fill:url(#SVGID_00000167363583392223504870000002113223353767343532_);stroke:#7F6D5D;stroke-width:4;stroke-linejoin:round;stroke-miterlimit:10;}
	.st8{fill:#7F6D5D;}
</style>
<g>
	<defs>
		<circle id="SVGID_1_" cx="213.9" cy="213.9" r="213.9"/>
	</defs>
	<clipPath id="SVGID_00000013894900438255926780000017261602430374152602_">
		<use xlink:href="#SVGID_1_"  style="overflow:visible;"/>
	</clipPath>
	<g style="clip-path:url(#SVGID_00000013894900438255926780000017261602430374152602_);">
		<circle class="st1" cx="212.2" cy="216" r="216"/>
		
			<radialGradient id="SVGID_00000113351871322906269010000010006167047320418486_" cx="213.9194" cy="213.9194" r="213.9194" gradientUnits="userSpaceOnUse">
			<stop  offset="0" style="stop-color:#DFF5A3"/>
			<stop  offset="0.634" style="stop-color:#A3F5BE"/>
			<stop  offset="1" style="stop-color:#A7A3F5"/>
		</radialGradient>
		<circle style="fill:url(#SVGID_00000113351871322906269010000010006167047320418486_);" cx="213.9" cy="213.9" r="213.9"/>
		<g>
			<path class="st3" d="M-4.6,514.9c0-111.6,90.4-202,202-202s202,90.4,202,202"/>
		</g>
		<g>
			<path class="st4" d="M89.7,512.7H15.2c0-89,57.6-164.4,137.4-191.4l34.8,8.7C187.4,330,94.2,417.4,89.7,512.7z"/>
		</g>
		<g>
			<path class="st5" d="M134.6,155.9v39.7v40.3v0.6v39.1v0.6c0,4.5,0.5,9,1.2,13.3V414h115.8v-63.3c28-13.1,47.5-41.4,47.5-74.4
				v-39.7v-41v-39.7c0-22-8.7-41.9-22.7-56.6C269.5,92,261.2,86,252,81.6c-2.4-1.2-4.9-2.2-7.4-3.1c-7.8-2.8-16.1-4.4-24.7-4.7
				c-1-0.1-2-0.2-3-0.2c-17.3,0-33.4,5.4-46.6,14.5c-11.3,7.7-20.5,18.3-26.7,30.6c-2.8,5.5-5,11.4-6.5,17.6
				C135.5,142.6,134.6,149.1,134.6,155.9z"/>
		</g>
		<path class="st3" d="M134.7,155.8v80c23-10.7,39-33.9,39-61c0-12.6-3.5-24.3-9.5-34.4c18.2-1.4,34.1-10.9,44.3-24.8
			c7.3-10.1,11.7-22.4,11.7-35.8c0-2-0.1-4.1-0.3-6.1c8.7,0.3,16.9,1.9,24.7,4.7c2.5,0.9,5,2,7.4,3.1c9.2,4.4,17.5,10.4,24.4,17.7
			l6.9-24c2.8-9.6-2.7-19.7-12.4-22.5c-7.8-2.3-15.8,1-20.1,7.4c-5.5-17.2-21.6-29.7-40.6-29.7c-4.5,0-8.8,0.7-12.9,2
			C180,37.9,167.5,54,167.5,73.1c0,5.3,1,10.3,2.8,15c-11.3,7.7-20.5,18.3-26.7,30.6c-2.8,5.5-5,11.4-6.5,17.6
			C135.5,142.6,134.6,149.1,134.7,155.8z"/>
		<g>
			<circle class="st5" cx="129" cy="201.9" r="22.1"/>
		</g>
		<g>
			<path class="st6" d="M240.4,248.9c-5.5-0.1-10.1-1.4-13.5-2.6c-5.3-2-11.6,0-13.8,5.2c-1.2,2.8-1.2,6.2,0.5,9.3
				c5.1,9.2,14.7,15.5,26,16c9.9,0.4,19-3.9,25-10.9c5.6-6.5,2.4-16.2-5-19c-2.1-0.8-4.3-0.6-6.4,0
				C250,247.9,245.6,248.8,240.4,248.9z"/>
		</g>
		<g>
			<path class="st6" d="M216.8,358.5c12.4,0,24.1-2.8,34.7-7.7v34.3c-3.8,0.5-7.7,0.8-11.6,0.8c-31.7,0-59.1-18-72.8-44.2
				C180.8,352.1,198,358.4,216.8,358.5z"/>
		</g>
		<g>
			<path class="st6" d="M248.8,209.7c-0.7-0.2-1.1-0.9-0.9-1.6c0.2-0.7,0.9-1.1,1.6-0.9c0.4,0.1,9.5,2.5,14.7-5.4
				c4.3-6.6-6-22.2-10.3-27.7c-0.5-0.6-0.4-1.4,0.2-1.9s1.4-0.4,1.9,0.2c0.7,0.8,16.7,21.2,10.5,30.8c-3.8,5.9-9.5,7-13.4,7
				C250.6,210.2,248.9,209.7,248.8,209.7z"/>
		</g>
		<g>
			<path class="st5" d="M136.2,429.6v-28.5c0-5.9,4.8-10.7,10.7-10.7h93.7c5.9,0,10.7,4.8,10.7,10.7v31.2c0,31-25.1,56.2-56.2,56.2
				l0,0C162.5,488.5,136.1,462.1,136.2,429.6z"/>
		</g>
		<g>
			<ellipse class="st6" cx="277.5" cy="160" rx="3.8" ry="7.1"/>
		</g>
		<g>
			<ellipse class="st6" cx="226.6" cy="155.1" rx="3.8" ry="7.1"/>
		</g>
		<g>
			<path class="st6" d="M290,141.7c-0.7-0.2-1.1-1-0.8-1.7c0.7-1.9-1.5-4.6-4.7-5.8c-3.3-1.2-6.7-0.7-7.4,1.1
				c-0.2,0.7-1,1.1-1.7,0.8c-0.7-0.2-1.1-1-0.8-1.7c1.3-3.3,6-4.4,10.8-2.6c4.8,1.8,7.5,5.9,6.2,9.2c-0.2,0.6-0.7,0.9-1.2,0.9
				C290.2,141.9,290.1,141.9,290,141.7z"/>
		</g>
		<g>
			<path class="st6" d="M214.1,139.2c-0.4-1.5-0.1-3,0.7-4.4c1.2-2.1,3.6-3.8,6.4-4.5c2.2-0.7,4.6-0.6,6.5,0.1c2.1,0.7,3.5,2.2,4,4
				c0.2,0.7-0.2,1.4-0.9,1.6c-0.7,0.2-1.4-0.2-1.6-0.9c-0.3-1-1.1-1.7-2.4-2.2c-1.4-0.5-3.1-0.6-4.9-0.1c-2.2,0.6-3.9,1.8-4.8,3.3
				c-0.3,0.5-0.7,1.4-0.4,2.3c0.2,0.7-0.2,1.4-0.9,1.6c-0.2,0-0.3,0-0.4,0C214.8,140,214.3,139.6,214.1,139.2z"/>
		</g>
		
			<linearGradient id="SVGID_00000083078513725136525740000003874644547382878864_" gradientUnits="userSpaceOnUse" x1="194.8698" y1="161.0184" x2="308.3409" y2="161.0184" gradientTransform="matrix(0.9989 -4.685116e-02 4.685116e-02 0.9989 -8.874 18.8949)">
			<stop  offset="0" style="stop-color:#F5C7A3"/>
			<stop  offset="1" style="stop-color:#DFF5A3"/>
		</linearGradient>
		
			<path style="fill:url(#SVGID_00000083078513725136525740000003874644547382878864_);stroke:#7F6D5D;stroke-width:4;stroke-linejoin:round;stroke-miterlimit:10;" d="
			M202.6,147.7c18.8-11.5,43.9-0.5,65.1-2.8c12.8-1.4,31.5-4.4,34.5,1.4c5.5,11,4.9,24.4,4.1,35.4c-0.4,6.3-5.9,11.2-12.2,10.8
			c-4-0.2-7.3-1-9.7-1.9c-15.3-5.1-22-18.6-31.3-16.3c-3.2,0.8-5.3,3-6.5,4.5c-0.3,0.8-0.9,2.2-1.9,3.8
			c-8.7,13.7-34.1,17.9-41.3,9.2c-1.7-2-2-4.2-2.2-10C201,173.5,201.1,162,202.6,147.7c-11.2,3.4,4.6,14.5-9.6,16"/>
		<path class="st8" d="M200.4,165.1c-21.3,6-44.5,9.4-65.8,15.4c-0.5-1.4,0.4-1.2-0.1-2.6c22.3-8.7,45.3-16.5,67.6-25.2
			C201.6,156.8,201,161,200.4,165.1z"/>
	</g>
</g>
</svg>
