<?xml version="1.0" encoding="utf-8"?>
<!-- Generator: Adobe Illustrator 26.0.3, SVG Export Plug-In . SVG Version: 6.00 Build 0)  -->
<svg version="1.1" id="Layer_1" xmlns="http://www.w3.org/2000/svg" xmlns:xlink="http://www.w3.org/1999/xlink" x="0px" y="0px"
	 viewBox="0 0 432 432" style="enable-background:new 0 0 432 432;" xml:space="preserve">
<style type="text/css">
	.st0{clip-path:url(#SVGID_00000063604339954045933840000006224977120747607966_);}
	.st1{fill:#B69B78;}
	.st2{clip-path:url(#SVGID_00000114065534819099401700000017552531221116451980_);}
	.st3{fill:#E1D7C8;}
	.st4{fill:#695948;}
	.st5{fill:none;}
</style>
<g>
	<defs>
		<path id="SVGID_1_" d="M216,432C112.6,432,23.4,358.4,3.9,257.1C1.3,243.7,0,229.9,0,216c0-1.3,0-2.6,0-3.8
			C0.2,201,1.3,189.8,3.2,179c9.3-54,38.6-102.1,82.6-135.4C123.5,15.1,168.5,0,216,0c59.9,0,115.6,24,156.8,67.5
			c13.4,14.1,24.8,30,33.9,47.1c16.5,31,25.3,66,25.3,101.4c0,3.4-0.1,6.5-0.2,9.4c-1.1,25.3-6.5,50-16.3,73.4
			c-19.7,47.5-55.9,86.5-101.8,109.8c-19,9.6-39.2,16.4-60.2,20.1C241.3,430.9,228.6,432,216,432z"/>
	</defs>
	<clipPath id="SVGID_00000085213339930151433240000007379342238726416047_">
		<use xlink:href="#SVGID_1_"  style="overflow:visible;"/>
	</clipPath>
	<g style="clip-path:url(#SVGID_00000085213339930151433240000007379342238726416047_);">
		<path class="st1" d="M216,432C112.6,432,23.4,358.4,3.9,257.1C1.3,243.7,0,229.9,0,216c0-1.3,0-2.6,0-3.8
			C0.2,201,1.3,189.8,3.2,179c9.3-54,38.6-102.1,82.6-135.4C123.5,15.1,168.5,0,216,0c59.9,0,115.6,24,156.8,67.5
			c13.4,14.1,24.8,30,33.9,47.1c16.5,31,25.3,66,25.3,101.4c0,3.4-0.1,6.5-0.2,9.4c-1.1,25.3-6.5,50-16.3,73.4
			c-19.7,47.5-55.9,86.5-101.8,109.8c-19,9.6-39.2,16.4-60.2,20.1C241.3,430.9,228.6,432,216,432z M216,38.7
			c-39,0-75.9,12.4-106.9,35.8C73,101.8,48.9,141.3,41.3,185.6c-1.6,8.9-2.4,18-2.6,27.3c0,1.1,0,2.1,0,3.1
			c0,11.4,1.1,22.8,3.2,33.8c16,83.2,89.3,143.6,174.1,143.6c10.4,0,20.8-0.9,30.8-2.7c17.2-3,33.8-8.6,49.4-16.5
			c37.7-19.2,67.4-51.2,83.7-90.2c8-19.2,12.4-39.4,13.3-60.2c0.1-2.4,0.2-4.9,0.2-7.7c0-29.1-7.2-57.8-20.7-83.2l0,0
			c-7.5-14.1-16.8-27.1-27.8-38.7C310.9,58.3,265.2,38.7,216,38.7z"/>
	</g>
	<g style="clip-path:url(#SVGID_00000085213339930151433240000007379342238726416047_);">
		<path class="st1" d="M216,432C112.6,432,23.4,358.4,3.9,257.1C1.3,243.7,0,229.9,0,216c0-1.3,0-2.6,0-3.8
			C0.2,201,1.3,189.8,3.2,179c9.3-54,38.6-102.1,82.6-135.4C123.5,15.1,168.5,0,216,0c59.9,0,115.6,24,156.8,67.5
			c13.4,14.1,24.8,30,33.9,47.1c16.5,31,25.3,66,25.3,101.4c0,3.4-0.1,6.5-0.2,9.4c-1.1,25.3-6.5,50-16.3,73.4
			c-19.7,47.5-55.9,86.5-101.8,109.8c-19,9.6-39.2,16.4-60.2,20.1C241.3,430.9,228.6,432,216,432z M216,38.7
			c-39,0-75.9,12.4-106.9,35.8C73,101.8,48.9,141.3,41.3,185.6c-1.6,8.9-2.4,18-2.6,27.3c0,1.1,0,2.1,0,3.1
			c0,11.4,1.1,22.8,3.2,33.8c16,83.2,89.3,143.6,174.1,143.6c10.4,0,20.8-0.9,30.8-2.7c17.2-3,33.8-8.6,49.4-16.5
			c37.7-19.2,67.4-51.2,83.7-90.2c8-19.2,12.4-39.4,13.3-60.2c0.1-2.4,0.2-4.9,0.2-7.7c0-29.1-7.2-57.8-20.7-83.2l0,0
			c-7.5-14.1-16.8-27.1-27.8-38.7C310.9,58.3,265.2,38.7,216,38.7z"/>
	</g>
	<g style="clip-path:url(#SVGID_00000085213339930151433240000007379342238726416047_);">
		<path class="st1" d="M216,432C112.6,432,23.4,358.4,3.9,257.1C1.3,243.7,0,229.9,0,216c0-1.3,0-2.6,0-3.8
			C0.2,201,1.3,189.8,3.2,179c9.3-54,38.6-102.1,82.6-135.4C123.5,15.1,168.5,0,216,0c59.9,0,115.6,24,156.8,67.5
			c13.4,14.1,24.8,30,33.9,47.1c16.5,31,25.3,66,25.3,101.4c0,3.4-0.1,6.5-0.2,9.4c-1.1,25.3-6.5,50-16.3,73.4
			c-19.7,47.5-55.9,86.5-101.8,109.8c-19,9.6-39.2,16.4-60.2,20.1C241.3,430.9,228.6,432,216,432z M216,38.7
			c-39,0-75.9,12.4-106.9,35.8C73,101.8,48.9,141.3,41.3,185.6c-1.6,8.9-2.4,18-2.6,27.3c0,1.1,0,2.1,0,3.1
			c0,11.4,1.1,22.8,3.2,33.8c16,83.2,89.3,143.6,174.1,143.6c10.4,0,20.8-0.9,30.8-2.7c17.2-3,33.8-8.6,49.4-16.5
			c37.7-19.2,67.4-51.2,83.7-90.2c8-19.2,12.4-39.4,13.3-60.2c0.1-2.4,0.2-4.9,0.2-7.7c0-29.1-7.2-57.8-20.7-83.2l0,0
			c-7.5-14.1-16.8-27.1-27.8-38.7C310.9,58.3,265.2,38.7,216,38.7z"/>
	</g>
	<g style="clip-path:url(#SVGID_00000085213339930151433240000007379342238726416047_);">
		<defs>
			<circle id="SVGID_00000033346387406218387550000006681164550391112632_" cx="216" cy="216" r="196.7"/>
		</defs>
		<clipPath id="SVGID_00000043434378221770286240000014925627477191107006_">
			<use xlink:href="#SVGID_00000033346387406218387550000006681164550391112632_"  style="overflow:visible;"/>
		</clipPath>
		<g style="clip-path:url(#SVGID_00000043434378221770286240000014925627477191107006_);">
			<g>
				<circle class="st3" cx="216" cy="216" r="196.7"/>
			</g>
			<g>
				<g>
					<rect x="221.9" y="186.4" class="st4" width="78.8" height="241.1"/>
				</g>
				<g>
					<polygon class="st4" points="367.5,186.4 374,186.4 292.2,103.7 145.8,103.7 145.8,186.4 145.8,427.7 210.4,427.7 367.5,427.7 
											"/>
				</g>
				<g>
					<polygon class="st1" points="216,186.4 227.6,186.4 145.8,103.7 64,186.4 69.6,186.4 69.6,427.5 64,427.5 64,427.7 
						227.6,427.7 227.6,427.5 216,427.5 					"/>
				</g>
				<g>
					<circle class="st5" cx="216" cy="213.4" r="196.7"/>
				</g>
				<g>
					<g>
						<rect x="122" y="271.4" class="st4" width="44.9" height="156.2"/>
					</g>
					<g>
						<path class="st4" d="M169.5,430.1h-50.1V268.8h50.1V430.1z M124.6,425h39.7V274h-39.7V425z"/>
					</g>
				</g>
				<g>
					<path class="st1" d="M236.6,142.4l-8.4-7.7V78c2.1-0.3,6.3-0.3,8.4,0V142.4z"/>
				</g>
				<g>
					<g>
						<polygon class="st4" points="257.4,134.7 236.6,134.7 236.6,78 247,77.7 257.4,78 						"/>
					</g>
				</g>
			</g>
		</g>
	</g>
	<g style="clip-path:url(#SVGID_00000085213339930151433240000007379342238726416047_);">
		<circle class="st5" cx="216" cy="216" r="196.7"/>
	</g>
</g>
</svg>
