<?xml version="1.0" encoding="utf-8"?>
<!-- Generator: Adobe Illustrator 26.0.3, SVG Export Plug-In . SVG Version: 6.00 Build 0)  -->
<svg version="1.1" id="Layer_1" xmlns="http://www.w3.org/2000/svg" xmlns:xlink="http://www.w3.org/1999/xlink" x="0px" y="0px"
	 viewBox="0 0 432 432" style="enable-background:new 0 0 432 432;" xml:space="preserve">
<style type="text/css">
	.st0{clip-path:url(#SVGID_00000116198613136525324990000008886888644932267178_);}
	.st1{fill:#7F6D5D;}
	.st2{clip-path:url(#SVGID_00000109003852694770663000000011601773849636648357_);}
	.st3{fill:#E1D7C8;}
	.st4{fill:#B69B78;}
	.st5{fill:#695948;}
</style>
<g>
	<defs>
		<path id="SVGID_1_" d="M216,432C112.6,432,23.4,358.4,3.9,257.1C1.3,243.7,0,229.9,0,216c0-1.3,0-2.6,0-3.9
			C0.2,201,1.3,189.8,3.2,179c9.3-54,38.6-102.1,82.6-135.4C123.5,15.1,168.5,0,216,0c59.9,0,115.6,24,156.8,67.5
			c13.4,14.1,24.8,30,33.9,47.1c16.5,31,25.3,66,25.3,101.4c0,3.4-0.1,6.4-0.2,9.4c-1.1,25.3-6.5,50-16.3,73.4
			c-19.7,47.5-55.9,86.5-101.8,109.8c-19,9.6-39.2,16.4-60.2,20.1C241.3,430.9,228.6,432,216,432z"/>
	</defs>
	<clipPath id="SVGID_00000013175870773327489610000004333644361152050858_">
		<use xlink:href="#SVGID_1_"  style="overflow:visible;"/>
	</clipPath>
	<g style="clip-path:url(#SVGID_00000013175870773327489610000004333644361152050858_);">
		<g>
			<path class="st1" d="M216,432C112.6,432,23.4,358.4,3.9,257.1C1.3,243.7,0,229.9,0,216c0-1.3,0-2.6,0-3.9
				C0.2,201,1.3,189.8,3.2,179c9.3-54,38.6-102.1,82.6-135.4C123.5,15.1,168.5,0,216,0c59.9,0,115.6,24,156.8,67.5
				c13.4,14.1,24.8,30,33.9,47.1c16.5,31,25.3,66,25.3,101.4c0,3.4-0.1,6.4-0.2,9.4c-1.1,25.3-6.5,50-16.3,73.4
				c-19.7,47.5-55.9,86.5-101.8,109.8c-19,9.6-39.2,16.4-60.2,20.1C241.3,430.9,228.6,432,216,432z M216,38.7
				c-39,0-75.9,12.4-106.8,35.8C73,101.8,48.9,141.3,41.3,185.6c-1.6,8.9-2.4,18-2.6,27.3c0,1.1,0,2.1,0,3.1
				c0,11.4,1.1,22.8,3.2,33.8c16,83.2,89.3,143.6,174.1,143.6c10.4,0,20.8-0.9,30.8-2.7c17.2-3,33.8-8.6,49.4-16.5
				c37.7-19.2,67.4-51.2,83.7-90.2c8-19.2,12.4-39.4,13.3-60.2c0.1-2.5,0.2-5,0.2-7.7c0-29.1-7.2-57.8-20.7-83.2l0,0
				c-7.5-14.1-16.8-27.1-27.8-38.7C310.9,58.3,265.2,38.7,216,38.7z"/>
		</g>
		<g>
			<g>
				<defs>
					<path id="SVGID_00000040542761644376757010000013884897955591685812_" d="M389.7,123.7c-8.4-15.7-18.8-30.1-30.9-42.9
						C322.9,42.9,272.2,19.3,216,19.3c-44.5,0-85.6,14.8-118.5,39.7c-39,29.5-66.6,73.1-75.2,123.3c-1.7,9.8-2.7,20-2.9,30.3
						c0,1.1,0,2.3,0,3.4c0,12.8,1.2,25.3,3.6,37.4c17.5,90.7,97.3,159.2,193.1,159.2c11.7,0,23.1-1,34.2-3
						c19.4-3.4,37.8-9.6,54.8-18.3c41.6-21.1,74.7-56.7,92.7-100c8.6-20.7,13.8-43.3,14.8-66.8c0.1-2.8,0.2-5.7,0.2-8.6
						C412.7,182.6,404.4,151.2,389.7,123.7z"/>
				</defs>
				<clipPath id="SVGID_00000061432284288283968510000011811415728096654004_">
					<use xlink:href="#SVGID_00000040542761644376757010000013884897955591685812_"  style="overflow:visible;"/>
				</clipPath>
				<g style="clip-path:url(#SVGID_00000061432284288283968510000011811415728096654004_);">
					<g>
						<path class="st3" d="M389.7,123.7c-8.4-15.7-18.8-30.1-30.9-42.9C322.9,42.9,272.2,19.3,216,19.3
							c-44.5,0-85.6,14.8-118.5,39.7c-39,29.5-66.6,73.1-75.2,123.3c-1.7,9.8-2.7,20-2.9,30.3c0,1.1,0,2.3,0,3.4
							c0,12.8,1.2,25.3,3.6,37.4c17.5,90.7,97.3,159.2,193.1,159.2c11.7,0,23.1-1,34.2-3c19.4-3.4,37.8-9.6,54.8-18.3
							c41.6-21.1,74.7-56.7,92.7-100c8.6-20.7,13.8-43.3,14.8-66.8c0.1-2.8,0.2-5.7,0.2-8.6C412.7,182.6,404.4,151.2,389.7,123.7z"
							/>
					</g>
					<g>
						<rect x="-103.6" y="209.8" class="st1" width="607.4" height="235"/>
					</g>
					<g>
						<rect x="-37.9" y="144.5" class="st4" width="476" height="24.9"/>
					</g>
					<g>
						<rect x="290" y="160.4" class="st4" width="24.7" height="49.4"/>
					</g>
					<g>
						<rect x="228.9" y="160.4" class="st4" width="24.7" height="49.4"/>
					</g>
					<g>
						<rect x="167.7" y="160.4" class="st4" width="24.7" height="49.4"/>
					</g>
					<g>
						<rect x="106.6" y="160.4" class="st4" width="24.7" height="49.4"/>
					</g>
					<g>
						<rect x="45.4" y="160.4" class="st4" width="24.7" height="49.4"/>
					</g>
					<g>
						<rect x="351.2" y="160.4" class="st4" width="24.7" height="49.4"/>
					</g>
					<g>
						<rect x="-103.6" y="237.2" class="st5" width="607.4" height="153.7"/>
					</g>
				</g>
			</g>
		</g>
		<g>
			<path class="st1" d="M107.5,390.9H323l-22,21.8l-39.9,4c0,0-45.9,7-49.9,7c-4,0-53.9,0-53.9,0l-36.9-21L107.5,390.9z"/>
		</g>
	</g>
</g>
</svg>
