<?xml version="1.0" encoding="utf-8"?>
<!-- Generator: Adobe Illustrator 26.0.3, SVG Export Plug-In . SVG Version: 6.00 Build 0)  -->
<svg version="1.1" id="Layer_1" xmlns="http://www.w3.org/2000/svg" xmlns:xlink="http://www.w3.org/1999/xlink" x="0px" y="0px"
	 viewBox="0 0 432 432" style="enable-background:new 0 0 432 432;" xml:space="preserve">
<style type="text/css">
	.st0{clip-path:url(#SVGID_00000012465290501084973280000016592559573751597481_);}
	.st1{fill:#695948;}
	.st2{fill:#B69B78;}
	.st3{fill:#BB9F83;}
	.st4{fill:#E1D7C8;}
</style>
<g>
	<g>
		<defs>
			<circle id="SVGID_1_" cx="216" cy="216" r="216"/>
		</defs>
		<clipPath id="SVGID_00000033355813498779520420000006315567109143746721_">
			<use xlink:href="#SVGID_1_"  style="overflow:visible;"/>
		</clipPath>
		<g style="clip-path:url(#SVGID_00000033355813498779520420000006315567109143746721_);">
			<circle class="st1" cx="216" cy="216" r="216"/>
			<g>
				<g>
					<path class="st2" d="M-0.8,514.9c0-111.6,90.4-202,202-202s202,90.4,202,202"/>
				</g>
				<g>
					<path class="st3" d="M93.5,512.7H19c0-89,57.6-164.4,137.4-191.4l34.8,8.7C191.2,330,98,417.4,93.5,512.7z"/>
				</g>
				<g>
					<path class="st4" d="M138.4,155.9v39.7v40.3v0.6v39.1v0.6c0,4.5,0.5,9,1.2,13.3V414h115.8v-63.3c28-13.1,47.5-41.4,47.5-74.4
						v-39.7v-41v-39.7c0-22-8.7-41.9-22.7-56.6C273.3,92,265,86,255.8,81.6c-2.4-1.2-4.9-2.2-7.4-3.1c-7.8-2.8-16.1-4.4-24.7-4.7
						c-1-0.1-2-0.2-3-0.2c-17.3,0-33.4,5.4-46.6,14.5c-11.3,7.7-20.5,18.3-26.7,30.6c-2.8,5.5-5,11.4-6.5,17.6
						C139.3,142.6,138.4,149.1,138.4,155.9z"/>
				</g>
				<path class="st2" d="M138.5,155.8v80c23-10.7,39-33.9,39-61c0-12.6-3.5-24.3-9.5-34.4c18.2-1.4,34.1-10.9,44.3-24.8
					c7.3-10.1,11.7-22.4,11.7-35.8c0-2-0.1-4.1-0.3-6.1c8.7,0.3,16.9,1.9,24.7,4.7c2.5,0.9,5,2,7.4,3.1c9.2,4.4,17.5,10.4,24.4,17.7
					l6.9-24c2.8-9.6-2.7-19.7-12.4-22.5c-7.8-2.3-15.8,1-20.1,7.4C249.1,42.9,233,30.4,214,30.4c-4.5,0-8.8,0.7-12.9,2
					c-17.3,5.5-29.8,21.6-29.8,40.7c0,5.3,1,10.3,2.8,15c-11.3,7.7-20.5,18.3-26.7,30.6c-2.8,5.5-5,11.4-6.5,17.6
					C139.3,142.6,138.4,149.1,138.5,155.8z"/>
				<g>
					<circle class="st4" cx="132.8" cy="201.9" r="22.1"/>
				</g>
				<g>
					<path class="st1" d="M244.2,248.9c-5.5-0.1-10.1-1.4-13.5-2.6c-5.3-2-11.6,0-13.8,5.2c-1.2,2.8-1.2,6.2,0.5,9.3
						c5.1,9.2,14.7,15.5,26,16c9.9,0.4,19-3.9,25-10.9c5.6-6.5,2.4-16.2-5-19c-2.1-0.8-4.3-0.6-6.4,0
						C253.8,247.9,249.4,248.8,244.2,248.9z"/>
				</g>
				<g>
					<path class="st1" d="M220.6,358.5c12.4,0,24.1-2.8,34.7-7.7v34.3c-3.8,0.5-7.7,0.8-11.6,0.8c-31.7,0-59.1-18-72.8-44.2
						C184.6,352.1,201.8,358.4,220.6,358.5z"/>
				</g>
				<g>
					<path class="st1" d="M252.6,209.7c-0.7-0.2-1.1-0.9-0.9-1.6c0.2-0.7,0.9-1.1,1.6-0.9c0.4,0.1,9.5,2.5,14.7-5.4
						c4.3-6.6-6-22.2-10.3-27.7c-0.5-0.6-0.4-1.4,0.2-1.9s1.4-0.4,1.9,0.2c0.7,0.8,16.7,21.2,10.5,30.8c-3.8,5.9-9.5,7-13.4,7
						C254.4,210.2,252.7,209.7,252.6,209.7z"/>
				</g>
				<g>
					<path class="st4" d="M140,429.6v-28.5c0-5.9,4.8-10.7,10.7-10.7h93.7c5.9,0,10.7,4.8,10.7,10.7v31.2c0,31-25.1,56.2-56.2,56.2
						l0,0C166.3,488.5,139.9,462.1,140,429.6z"/>
				</g>
				<g>
					<ellipse class="st1" cx="281.3" cy="160" rx="3.8" ry="7.1"/>
				</g>
				<g>
					<ellipse class="st1" cx="230.4" cy="155.1" rx="3.8" ry="7.1"/>
				</g>
				<g>
					<path class="st1" d="M293.8,141.7c-0.7-0.2-1.1-1-0.8-1.7c0.7-1.9-1.5-4.6-4.7-5.8c-3.3-1.2-6.7-0.7-7.4,1.1
						c-0.2,0.7-1,1.1-1.7,0.8c-0.7-0.2-1.1-1-0.8-1.7c1.3-3.3,6-4.4,10.8-2.6c4.8,1.8,7.5,5.9,6.2,9.2c-0.2,0.6-0.7,0.9-1.2,0.9
						C294,141.9,293.9,141.9,293.8,141.7z"/>
				</g>
				<g>
					<path class="st1" d="M217.9,139.2c-0.4-1.5-0.1-3,0.7-4.4c1.2-2.1,3.6-3.8,6.4-4.5c2.2-0.7,4.6-0.6,6.5,0.1
						c2.1,0.7,3.5,2.2,4,4c0.2,0.7-0.2,1.4-0.9,1.6c-0.7,0.2-1.4-0.2-1.6-0.9c-0.3-1-1.1-1.7-2.4-2.2c-1.4-0.5-3.1-0.6-4.9-0.1
						c-2.2,0.6-3.9,1.8-4.8,3.3c-0.3,0.5-0.7,1.4-0.4,2.3c0.2,0.7-0.2,1.4-0.9,1.6c-0.2,0-0.3,0-0.4,0
						C218.6,140,218.1,139.6,217.9,139.2z"/>
				</g>
			</g>
		</g>
	</g>
</g>
</svg>
