<?xml version="1.0" encoding="utf-8"?>
<!-- Generator: Adobe Illustrator 26.0.3, SVG Export Plug-In . SVG Version: 6.00 Build 0)  -->
<svg version="1.1" id="Layer_1" xmlns="http://www.w3.org/2000/svg" xmlns:xlink="http://www.w3.org/1999/xlink" x="0px" y="0px"
	 viewBox="0 0 432 432" style="enable-background:new 0 0 432 432;" xml:space="preserve">
<style type="text/css">
	.st0{clip-path:url(#SVGID_00000088816041716589620890000012850525320602129073_);}
	.st1{fill:#695948;}
	.st2{fill:#B69B78;}
	.st3{fill:#BB9F83;}
	.st4{fill:#E1D7C8;}
</style>
<g>
	<defs>
		<circle id="SVGID_1_" cx="216" cy="216" r="216"/>
	</defs>
	<clipPath id="SVGID_00000068665844931676230070000006949202709738932406_">
		<use xlink:href="#SVGID_1_"  style="overflow:visible;"/>
	</clipPath>
	<g style="clip-path:url(#SVGID_00000068665844931676230070000006949202709738932406_);">
		<circle class="st1" cx="216" cy="216" r="216"/>
		<g>
			<g>
				<path class="st2" d="M28.8,514.9c0-111.6,90.4-202,202-202s202,90.4,202,202"/>
			</g>
			<g>
				<path class="st3" d="M240.8,330l34.8-8.7c79.8,27,137.4,102.4,137.4,191.4h-74.5C334,417.4,240.8,330,240.8,330z"/>
			</g>
			<g>
				<path class="st4" d="M291.1,136.3c-1.5-6.2-3.7-12.1-6.5-17.6c-6.2-12.3-15.4-22.9-26.7-30.6c-13.2-9.1-29.3-14.5-46.6-14.5
					c-1,0-2,0.1-3,0.2c-8.6,0.3-16.9,1.9-24.7,4.7c-2.5,0.9-5,1.9-7.4,3.1c-9.2,4.4-17.5,10.4-24.4,17.7
					c-14,14.7-22.7,34.6-22.7,56.6v39.7v41v39.7c0,33,19.5,61.3,47.5,74.4v63.3h115.8V289.5c0.7-4.3,1.2-8.8,1.2-13.3v-0.6v-39.1
					v-0.6v-40.3v-39.7C293.6,149.1,292.7,142.6,291.1,136.3z"/>
			</g>
			<path class="st2" d="M291.1,136.3c-1.5-6.2-3.7-12.1-6.5-17.6c-6.2-12.3-15.4-22.9-26.7-30.6c1.8-4.7,2.8-9.7,2.8-15
				c0-19.1-12.5-35.2-29.8-40.7c-4.1-1.3-8.4-2-12.9-2c-19,0-35.1,12.5-40.6,29.7c-4.3-6.4-12.3-9.7-20.1-7.4
				c-9.7,2.8-15.2,12.9-12.4,22.5l6.9,24c6.9-7.3,15.2-13.3,24.4-17.7c2.4-1.1,4.9-2.2,7.4-3.1c7.8-2.8,16-4.4,24.7-4.7
				c-0.2,2-0.3,4.1-0.3,6.1c0,13.4,4.4,25.7,11.7,35.8c10.2,13.9,26.1,23.4,44.3,24.8c-6,10.1-9.5,21.8-9.5,34.4
				c0,27.1,16,50.3,39,61v-80C293.6,149.1,292.7,142.6,291.1,136.3z"/>
			<g>
				<circle class="st4" cx="299.2" cy="201.9" r="22.1"/>
			</g>
			<g>
				<path class="st1" d="M175,246.9c-2.1-0.6-4.3-0.8-6.4,0c-7.4,2.8-10.6,12.5-5,19c6,7,15.1,11.3,25,10.9c11.3-0.5,20.9-6.8,26-16
					c1.7-3.1,1.7-6.5,0.5-9.3c-2.2-5.2-8.5-7.2-13.8-5.2c-3.4,1.2-8,2.5-13.5,2.6C182.6,248.8,178.2,247.9,175,246.9z"/>
			</g>
			<g>
				<path class="st1" d="M261.1,341.7c-13.7,26.2-41.1,44.2-72.8,44.2c-3.9,0-7.8-0.3-11.6-0.8v-34.3c10.6,4.9,22.3,7.7,34.7,7.7
					C230.2,358.4,247.4,352.1,261.1,341.7z"/>
			</g>
			<g>
				<path class="st1" d="M175.1,210.2c-3.9,0-9.6-1.1-13.4-7c-6.2-9.6,9.8-30,10.5-30.8c0.5-0.6,1.3-0.7,1.9-0.2
					c0.6,0.5,0.7,1.3,0.2,1.9c-4.3,5.5-14.6,21.1-10.3,27.7c5.2,7.9,14.3,5.5,14.7,5.4c0.7-0.2,1.4,0.2,1.6,0.9
					c0.2,0.7-0.2,1.4-0.9,1.6C179.3,209.7,177.6,210.2,175.1,210.2z"/>
			</g>
			<g>
				<path class="st4" d="M233.1,488.5L233.1,488.5c-31.1,0-56.2-25.2-56.2-56.2v-31.2c0-5.9,4.8-10.7,10.7-10.7h93.7
					c5.9,0,10.7,4.8,10.7,10.7v28.5C292.1,462.1,265.7,488.5,233.1,488.5z"/>
			</g>
			<g>
				<ellipse class="st1" cx="150.7" cy="160" rx="3.8" ry="7.1"/>
			</g>
			<g>
				<ellipse class="st1" cx="201.6" cy="155.1" rx="3.8" ry="7.1"/>
			</g>
			<g>
				<path class="st1" d="M137.8,141.9c-0.5,0-1-0.3-1.2-0.9c-1.3-3.3,1.4-7.4,6.2-9.2c4.8-1.8,9.5-0.7,10.8,2.6
					c0.3,0.7-0.1,1.5-0.8,1.7c-0.7,0.3-1.5-0.1-1.7-0.8c-0.7-1.8-4.1-2.3-7.4-1.1c-3.2,1.2-5.4,3.9-4.7,5.8c0.3,0.7-0.1,1.5-0.8,1.7
					C138.1,141.9,138,141.9,137.8,141.9z"/>
			</g>
			<g>
				<path class="st1" d="M212.8,140c-0.1,0-0.2,0-0.4,0c-0.7-0.2-1.1-0.9-0.9-1.6c0.3-0.9-0.1-1.8-0.4-2.3c-0.9-1.5-2.6-2.7-4.8-3.3
					c-1.8-0.5-3.5-0.4-4.9,0.1c-1.3,0.5-2.1,1.2-2.4,2.2c-0.2,0.7-0.9,1.1-1.6,0.9c-0.7-0.2-1.1-0.9-0.9-1.6c0.5-1.8,1.9-3.3,4-4
					c1.9-0.7,4.3-0.8,6.5-0.1c2.8,0.7,5.2,2.4,6.4,4.5c0.8,1.4,1.1,2.9,0.7,4.4C213.9,139.6,213.4,140,212.8,140z"/>
			</g>
		</g>
	</g>
</g>
</svg>
