<?xml version="1.0" encoding="utf-8"?>
<!-- Generator: Adobe Illustrator 26.0.3, SVG Export Plug-In . SVG Version: 6.00 Build 0)  -->
<svg version="1.1" id="Layer_1" xmlns="http://www.w3.org/2000/svg" xmlns:xlink="http://www.w3.org/1999/xlink" x="0px" y="0px"
	 viewBox="0 0 432 432" style="enable-background:new 0 0 432 432;" xml:space="preserve">
<style type="text/css">
	.st0{clip-path:url(#SVGID_00000150081060990846169860000007661182969705540742_);}
	.st1{fill:#BAD8D5;}
	.st2{fill:#E1D7C8;}
	.st3{fill:#98CAC9;}
	.st4{fill:#CAE0DD;}
</style>
<g>
	<defs>
		<path id="SVGID_1_" d="M216,432C112.6,432,23.4,358.4,3.9,257.1C1.3,243.7,0,229.9,0,216c0-1.3,0-2.6,0-3.8
			C0.2,201,1.3,189.8,3.2,179c9.3-54,38.6-102.1,82.6-135.4C123.5,15.1,168.5,0,216,0c59.9,0,115.6,24,156.8,67.5
			c13.4,14.1,24.8,30,33.9,47.1c16.5,31,25.3,66,25.3,101.4c0,3.4-0.1,6.4-0.2,9.4c-1.1,25.3-6.5,50-16.3,73.4
			c-19.7,47.5-55.9,86.5-101.8,109.8c-19,9.6-39.2,16.4-60.2,20.1C241.3,430.9,228.6,432,216,432z"/>
	</defs>
	<clipPath id="SVGID_00000094600514925362962650000004192685993887310224_">
		<use xlink:href="#SVGID_1_"  style="overflow:visible;"/>
	</clipPath>
	<g style="clip-path:url(#SVGID_00000094600514925362962650000004192685993887310224_);">
		<g>
			<path class="st1" d="M216,432C112.6,432,23.4,358.4,3.9,257.1C1.3,243.7,0,229.9,0,216c0-1.3,0-2.6,0-3.8
				C0.2,201,1.3,189.8,3.2,179c9.3-54,38.6-102.1,82.6-135.4C123.5,15.1,168.5,0,216,0c59.9,0,115.6,24,156.8,67.5
				c13.4,14.1,24.8,30,33.9,47.1c16.5,31,25.3,66,25.3,101.4c0,3.4-0.1,6.4-0.2,9.4c-1.1,25.3-6.5,50-16.3,73.4
				c-19.7,47.5-55.9,86.5-101.8,109.8c-19,9.6-39.2,16.4-60.2,20.1C241.3,430.9,228.6,432,216,432z M216,38.7
				c-39,0-75.9,12.4-106.9,35.8C73,101.8,48.9,141.3,41.3,185.6c-1.6,8.9-2.4,18-2.6,27.3c0,1.1,0,2.1,0,3.1
				c0,11.4,1.1,22.8,3.2,33.8c16,83.2,89.3,143.6,174.1,143.6c10.4,0,20.8-0.9,30.8-2.7c17.2-3,33.8-8.6,49.4-16.5
				c37.7-19.2,67.4-51.2,83.7-90.2c8-19.2,12.4-39.4,13.3-60.2c0.1-2.5,0.2-5,0.2-7.7c0-29.1-7.2-57.8-20.7-83.2l0,0
				c-7.5-14.1-16.8-27.1-27.8-38.7C310.9,58.3,265.2,38.7,216,38.7z"/>
		</g>
		<g>
			<g>
				<path class="st2" d="M412.7,216c0,2.9-0.1,5.7-0.2,8.6c-37,11.7-90,41.7-157.9,26.1c-44.9-10.3-70.9-34.7-98.4-54.1
					c-21.3-15.1-43.5-27.1-75.9-27.1c-21.6,0-41.1,5.3-58.1,12.8c8.6-50.2,36.3-93.8,75.2-123.3c32.9-25,74-39.7,118.5-39.7
					c56.2,0,106.9,23.6,142.8,61.5c12.1,12.8,22.5,27.2,30.9,42.9C404.4,151.2,412.7,182.6,412.7,216z"/>
			</g>
			<g>
				<path class="st3" d="M412.5,224.6c-1,23.6-6.2,46.1-14.8,66.8c-18,43.4-51.1,78.9-92.7,100c-17,8.6-35.4,14.9-54.8,18.3
					c-11.1,2-22.5,3-34.2,3c-95.8,0-175.6-68.5-193.1-159.2c-2.3-12.1-3.6-24.6-3.6-37.4c0-1.1,0-2.3,0-3.4
					c0.2-10.3,1.1-20.4,2.9-30.3c17-7.5,36.5-12.8,58.1-12.8c32.5,0,54.6,12,75.9,27.1c27.4,19.4,53.5,43.8,98.4,54.1
					C322.5,266.3,375.4,236.3,412.5,224.6z"/>
			</g>
			<g>
				<path class="st4" d="M301.1,119.3c-2.2,1.5-4.4,2.9-6.7,4.4c-52.1,34.3-98.4,56.4-138.2,72.8c-21.3-15.1-43.5-27.1-75.9-27.1
					c-21.6,0-41.1,5.3-58.1,12.8c8.6-50.2,36.3-93.8,75.2-123.3C149.4,81.6,217.1,108.8,301.1,119.3z"/>
			</g>
			<g>
				<path class="st1" d="M412.7,216c0,2.9-0.1,5.7-0.2,8.6c-37,11.7-90,41.7-157.9,26.1c-44.9-10.3-70.9-34.7-98.4-54.1
					c39.8-16.4,86.1-38.6,138.2-72.8c2.3-1.5,4.5-3,6.7-4.4c21.9-14.7,40.7-28.5,57.7-38.6c12.1,12.8,22.5,27.2,30.9,42.9
					C404.4,151.2,412.7,182.6,412.7,216z"/>
			</g>
		</g>
	</g>
</g>
</svg>
