<?xml version="1.0" encoding="utf-8"?>
<!-- Generator: Adobe Illustrator 26.0.3, SVG Export Plug-In . SVG Version: 6.00 Build 0)  -->
<svg version="1.1" id="Layer_1" xmlns="http://www.w3.org/2000/svg" xmlns:xlink="http://www.w3.org/1999/xlink" x="0px" y="0px"
	 viewBox="0 0 121.6 119.3" style="enable-background:new 0 0 121.6 119.3;" xml:space="preserve">
<style type="text/css">
	.st0{fill:#F1EBE3;}
	.st1{fill:#B69B78;}
</style>
<rect class="st0" width="121.6" height="119.3"/>
<g>
	<path class="st1" d="M6.9,60.7c18.4,1.9,36.8,11.9,43.8,29.4c-0.3-23-10.5-41-28.4-55.4C48.5,43.6,65.7,67.1,71.8,93
		c4.9-16.5,14.7-32.7,31.7-38.8C90,64.9,84.7,81.7,84.9,98.3c-16.1,0-32.2,0-48.2,0C37.5,80.1,22.8,67.1,6.9,60.7z"/>
	<path class="st1" d="M71.6,82.2c-2.3-6.1-5.1-12.2-8.5-17.8C67,47.9,77.7,31.7,91.3,21C77.1,38.1,72.5,60.7,71.6,82.2z"/>
</g>
</svg>
