<?xml version="1.0" encoding="utf-8"?>
<!-- Generator: Adobe Illustrator 26.0.3, SVG Export Plug-In . SVG Version: 6.00 Build 0)  -->
<svg version="1.1" id="Layer_1" xmlns="http://www.w3.org/2000/svg" xmlns:xlink="http://www.w3.org/1999/xlink" x="0px" y="0px"
	 viewBox="0 0 72 72" style="enable-background:new 0 0 72 72;" xml:space="preserve">
<style type="text/css">
	.st0{fill:#F1EBE3;}
	.st1{fill:#B69B78;}
</style>
<rect x="-25.1" y="-23.3" class="st0" width="121.6" height="119.3"/>
<g>
	<path class="st1" d="M-18.2,37.4c18.4,1.9,36.8,11.9,43.8,29.4c-0.3-23-10.5-41-28.4-55.4c26.2,8.9,43.4,32.4,49.5,58.3
		C51.6,53.2,61.4,37,78.4,30.9C64.9,41.6,59.6,58.4,59.8,75c-16.1,0-32.2,0-48.2,0C12.4,56.8-2.3,43.8-18.2,37.4z"/>
	<path class="st1" d="M46.5,58.9c-2.3-6.1-5.1-12.2-8.5-17.8C41.9,24.6,52.6,8.4,66.2-2.3C52,14.8,47.4,37.4,46.5,58.9z"/>
</g>
</svg>
