<?xml version="1.0" encoding="utf-8"?>
<!-- Generator: Adobe Illustrator 26.0.3, SVG Export Plug-In . SVG Version: 6.00 Build 0)  -->
<svg version="1.1" id="Layer_1" xmlns="http://www.w3.org/2000/svg" xmlns:xlink="http://www.w3.org/1999/xlink" x="0px" y="0px"
	 viewBox="0 0 72 72" style="enable-background:new 0 0 72 72;" xml:space="preserve">
<style type="text/css">
	.st0{fill:#695948;}
	.st1{fill:#F1EBE3;}
</style>
<rect x="0" y="0" class="st0" width="72" height="72"/>
<g>
	<path class="st1" d="M45.4,31.4h-2.8v-3.7c0-1.6-1.3-2.9-2.9-2.9c-1.6,0-2.9,1.3-2.9,2.9v3.7h-5c0-0.2,0.1-0.4,0.1-0.5v-9.5
		c0-2.5-2-4.5-4.5-4.5H17.4c-2.5,0-4.5,2-4.5,4.5v9.5c0,0.2,0,0.5,0.1,0.7c-1.7,0.4-3,2-3,3.8v3.9c1.9-1.7,4.5-2.8,7.3-2.8h17.8
		c6.1,0,11,4.9,11,11c0,0.9-0.1,1.7-0.3,2.5c2.1-0.1,3.8-1.8,3.8-4V35.4C49.4,33.2,47.6,31.4,45.4,31.4z M16.9,20.9h10.9v10.5H16.9
		V20.9z"/>
	<path class="st1" d="M62.8,50.9c-4.3,0-7.9-3.5-7.9-7.9v-9.4h-2.9v21.5h11.3v-4.3C63.2,50.9,63,50.9,62.8,50.9z"/>
	<path class="st1" d="M34.3,39.4H16.5c-4.3,0-7.9,3.5-7.9,7.9s3.5,7.9,7.9,7.9h17.8c4.3,0,7.9-3.5,7.9-7.9S38.6,39.4,34.3,39.4z
		 M15.2,49.8c-1.4,0-2.5-1.1-2.5-2.5c0-1.4,1.1-2.5,2.5-2.5c1.4,0,2.5,1.1,2.5,2.5C17.7,48.6,16.6,49.8,15.2,49.8z M25.4,49.8
		c-1.4,0-2.5-1.1-2.5-2.5c0-1.4,1.1-2.5,2.5-2.5c1.4,0,2.5,1.1,2.5,2.5C27.9,48.6,26.8,49.8,25.4,49.8z M35.5,49.8
		c-1.4,0-2.5-1.1-2.5-2.5c0-1.4,1.1-2.5,2.5-2.5c1.4,0,2.5,1.1,2.5,2.5C38,48.6,36.9,49.8,35.5,49.8z"/>
</g>
</svg>
