<?xml version="1.0" encoding="utf-8"?>
<!-- Generator: Adobe Illustrator 26.0.3, SVG Export Plug-In . SVG Version: 6.00 Build 0)  -->
<svg version="1.1" id="Layer_1" xmlns="http://www.w3.org/2000/svg" xmlns:xlink="http://www.w3.org/1999/xlink" x="0px" y="0px"
	 viewBox="0 0 72 72" style="enable-background:new 0 0 72 72;" xml:space="preserve">
<style type="text/css">
	.st0{fill:#695948;}
	.st1{fill:#F1EBE3;}
</style>
<rect y="0" class="st0" width="72" height="72"/>
<g>
	<path class="st1" d="M33.3,50.1c0-3.8,0-7.6,0-11.4c-3.8,0-7.6,0-11.6,0c0.7,0.7,1.3,1.3,1.9,1.9c0.6,0.7,1,1.4,0.8,2.3
		c-0.2,1-0.7,1.7-1.7,2.1c-1,0.4-2,0.1-2.8-0.6c-1.5-1.5-2.9-3-4.4-4.4c-0.7-0.7-1.5-1.5-2.2-2.2c-1-1.1-1.1-2.6,0-3.6
		c2.2-2.2,4.4-4.4,6.6-6.6c1.1-1,2.7-1,3.7,0c1,1,1,2.6,0,3.7c-0.6,0.7-1.3,1.3-2.1,2c4.1,0,7.9,0,11.7,0c0-3.8,0-7.6,0-11.6
		c-0.7,0.6-1.2,1.2-1.8,1.7c-1.3,1.3-2.9,1.3-4,0.2c-1-1.1-1-2.7,0.3-3.9c2.1-2.1,4.2-4.2,6.4-6.3c1.2-1.2,2.7-1.2,3.9,0
		c2.1,2.1,4.1,4.1,6.2,6.2c1.2,1.3,1.3,2.9,0.2,3.9c-1.1,1.1-2.7,1-3.9-0.3c-0.5-0.5-1.1-1.1-1.8-1.7c0,3.9,0,7.7,0,11.6
		c3.8,0,7.6,0,11.6,0c-0.7-0.7-1.3-1.3-1.8-1.8c-1.2-1.2-1.3-2.7-0.2-3.9c1-1.1,2.7-1.1,3.9,0.1c2.1,2.1,4.2,4.2,6.4,6.3
		c1.1,1.2,1.2,2.6,0.1,3.8c-2.1,2.2-4.3,4.4-6.5,6.5c-1.6,1.5-3.9,0.9-4.5-1.1c-0.3-1,0-1.8,0.7-2.5c0.6-0.6,1.3-1.2,1.9-1.7
		c-0.1-0.1-0.1-0.2-0.2-0.2c-3.8,0-7.6,0-11.4,0c0,3.8,0,7.6,0,11.4c0.1,0,0.1,0.1,0.2,0.1c0.5-0.6,1.1-1.2,1.6-1.7
		c1.2-1.2,2.7-1.3,3.9-0.2c1.1,1,1.1,2.6-0.1,3.9c-2.1,2.2-4.2,4.3-6.3,6.4c-1.1,1.1-2.6,1.1-3.7,0c-2.2-2.1-4.4-4.3-6.5-6.5
		c-1.1-1.2-1.2-2.8-0.1-3.8c1.1-1.1,2.6-1,3.8,0.1c0.6,0.6,1.1,1.2,1.7,1.9C33.1,50.2,33.2,50.2,33.3,50.1z"/>
</g>
</svg>
