<?xml version="1.0" encoding="utf-8"?>
<!-- Generator: Adobe Illustrator 26.0.3, SVG Export Plug-In . SVG Version: 6.00 Build 0)  -->
<svg version="1.1" id="Layer_1" xmlns="http://www.w3.org/2000/svg" xmlns:xlink="http://www.w3.org/1999/xlink" x="0px" y="0px"
	 viewBox="0 0 72 72" style="enable-background:new 0 0 72 72;" xml:space="preserve">
<style type="text/css">
	.st0{fill:#B69B78;}
	.st1{fill:#F1EBE3;}
</style>
<rect x="-23.9" y="-23.3" class="st0" width="119.3" height="119.3"/>
<g>
	<path class="st1" d="M23.8,84c-6.3,0-12.6,0-18.8,0c-3.9-1.4-5-3-5-7.2c0-11.1,0-22.3,0-33.4c0-0.4,0-0.7,0-1.1c-2.1,0-4.1,0-6,0
		c-2.8,0-4.9-1.7-5.7-4.3c-0.1-0.2-0.1-0.3-0.2-0.5c0-0.7,0-1.5,0-2.2c0.6-2.1,2.1-3.6,3.6-5.1C2.1,19.6,12.7,9,23.2-1.5
		c2.7-2.7,5.4-5.3,8.1-8c1.2-1.2,2.7-1.9,4.5-1.9c2.1,0,3.7,1.2,5.1,2.6c4,3.9,7.9,7.9,11.9,11.8c0.2,0.2,0.5,0.4,0.8,0.8
		c0-1.2,0-2.2,0-3.1c0-3.4,2.6-6,6-6c1.8,0,3.6,0,5.4,0c4,0,6.5,2.5,6.5,6.4c0,6.6,0,13.2,0,19.8c0,0.6,0.2,1,0.6,1.5
		c2.6,2.6,5.2,5.2,7.9,7.8c1.5,1.5,2.9,3,3.5,5.1c0,0.7,0,1.5,0,2.2c-1.7,4-3,4.8-7.4,4.8c-1.5,0-3,0-4.5,0c0,0.5,0,0.8,0,1.2
		c0,11.4,0,22.8,0,34.2c0,3.1-1.7,5.3-4.7,6.1c-0.1,0-0.2,0.1-0.3,0.1c-6.3,0-12.6,0-18.8,0c0-9.8,0-19.7,0-29.5
		c0-3.7-2.5-6.3-6.3-6.3c-3.7,0-7.4,0-11.1,0c-4.1,0-6.5,2.5-6.5,6.5C23.8,64.5,23.8,74.3,23.8,84z"/>
</g>
</svg>
