<?xml version="1.0" encoding="utf-8"?>
<!-- Generator: Adobe Illustrator 26.0.3, SVG Export Plug-In . SVG Version: 6.00 Build 0)  -->
<svg version="1.1" id="Layer_1" xmlns="http://www.w3.org/2000/svg" xmlns:xlink="http://www.w3.org/1999/xlink" x="0px" y="0px"
	 viewBox="0 0 72 72" style="enable-background:new 0 0 72 72;" xml:space="preserve">
<style type="text/css">
	.st0{fill:#B69B78;}
	.st1{fill:#F1EBE3;}
</style>
<rect x="-23.9" y="-23.3" class="st0" width="119.3" height="119.3"/>
<path class="st1" d="M62.3,9.6c5.4,0.4,11.9-1.7,15.3,3.5c8.2,10.1,9.5,47.9-7,49.7c-14.5-1.5-3.9,3.5-12.7,8.2
	c-16.3,5.1-34.9,4.7-51.3,0.5c-3.8-1.4-5.3-3.6-5.3-7.6c0-19.6,0-39.1,0-58.7c0-4.6,2.7-7.2,7.2-7.2c15.6,0,31.1,0,46.7,0
	C62-2.3,62.6,4.4,62.3,9.6z M62.3,56.3c17.5,3.4,16.6-26.7,10.8-36.6c-2-4.3-6.9-3.4-10.8-3.6C62.3,29.6,62.3,42.9,62.3,56.3z"/>
</svg>
