<?xml version="1.0" encoding="utf-8"?>
<!-- Generator: Adobe Illustrator 26.0.3, SVG Export Plug-In . SVG Version: 6.00 Build 0)  -->
<svg version="1.1" id="Layer_1" xmlns="http://www.w3.org/2000/svg" xmlns:xlink="http://www.w3.org/1999/xlink" x="0px" y="0px"
	 viewBox="0 0 72.5 72.5" style="enable-background:new 0 0 72.5 72.5;" xml:space="preserve">
<style type="text/css">
	.st0{fill:#E2D8C9;}
	.st1{fill:#695948;}
	.st2{fill:#B69B78;}
</style>
<rect class="st0" width="72" height="72"/>
<g>
	<path class="st1" d="M20.8,67C12.1,67,5,59.9,5,51.2V20.8C5,12.1,12.1,5,20.8,5h30.5C59.9,5,67,12.1,67,20.8v30.5
		C67,59.9,59.9,67,51.2,67H20.8z"/>
	<path class="st2" d="M51.2,10C57.2,10,62,14.8,62,20.8v30.5C62,57.2,57.2,62,51.2,62H20.8C14.8,62,10,57.2,10,51.2V20.8
		C10,14.8,14.8,10,20.8,10H51.2 M51.2,0H20.8C9.3,0,0,9.3,0,20.8v30.5C0,62.7,9.3,72,20.8,72h30.5C62.7,72,72,62.7,72,51.2V20.8
		C72,9.3,62.7,0,51.2,0L51.2,0z"/>
</g>
</svg>
